<?xml version="1.0" encoding="UTF-8" standalone="no"?>
<svg
   id="logoipsum"
   data-name="logoipsum"
   viewBox="0 0 117.67738 23.614685"
   version="1.1"
   sodipodi:docname="logoipsum.svg"
   inkscape:version="1.2 (dc2aedaf03, 2022-05-15)"
   width="117.67738"
   height="23.614685"
   xmlns:inkscape="http://www.inkscape.org/namespaces/inkscape"
   xmlns:sodipodi="http://sodipodi.sourceforge.net/DTD/sodipodi-0.dtd"
   xmlns="http://www.w3.org/2000/svg"
   xmlns:svg="http://www.w3.org/2000/svg"
   xmlns:rdf="http://www.w3.org/1999/02/22-rdf-syntax-ns#"
   xmlns:cc="http://creativecommons.org/ns#"
   xmlns:dc="http://purl.org/dc/elements/1.1/">
  <defs
     id="defs27" />
  <sodipodi:namedview
     id="namedview25"
     pagecolor="#ffffff"
     bordercolor="#666666"
     borderopacity="1.0"
     inkscape:showpageshadow="2"
     inkscape:pageopacity="0.0"
     inkscape:pagecheckerboard="0"
     inkscape:deskcolor="#d1d1d1"
     showgrid="false"
     inkscape:zoom="3.2581765"
     inkscape:cx="50.488364"
     inkscape:cy="25.013992"
     inkscape:window-width="1306"
     inkscape:window-height="1036"
     inkscape:window-x="0"
     inkscape:window-y="0"
     inkscape:window-maximized="1"
     inkscape:current-layer="logoipsum" />
  <title
     id="title2">logoipsum-3</title>
  <path
     d="m 37.83,19.20472 a 2.65,2.65 0 0 1 -1.67,-0.48 1.56,1.56 0 0 1 -0.63,-1.31 V 8.1447201 a 0.26,0.26 0 0 1 0.29,-0.29 h 1.68 c 0.19,0 0.28,0.1 0.28,0.29 V 16.69472 c 0,0.38 0.17,0.57 0.52,0.57 a 1.44,1.44 0 0 0 0.44,-0.05 c 0.2,0 0.31,0.06 0.32,0.24 l 0.15,1.25 a 0.26,0.26 0 0 1 -0.24,0.31 3.77,3.77 0 0 1 -1.14,0.19 z"
     style="fill:#ffffff"
     id="path4" />
  <path
     d="m 47.28,18.13472 a 4.71,4.71 0 0 1 -6,0 4,4 0 0 1 0,-5.63 4.73,4.73 0 0 1 6,0 4.06,4.06 0 0 1 0,5.62 z m -4.42,-1.32 a 2.13,2.13 0 0 0 2.86,0 2.24,2.24 0 0 0 0,-2.94 2.13,2.13 0 0 0 -2.86,0 2.24,2.24 0 0 0 0,2.94 z"
     style="fill:#ffffff"
     id="path6" />
  <path
     d="m 57.66,11.68472 c 0.19,0 0.28,0.1 0.28,0.29 v 7.17 a 3.26,3.26 0 0 1 -1.11,2.57 4.2,4.2 0 0 1 -2.91,1 4.68,4.68 0 0 1 -2.71,-0.75 3,3 0 0 1 -1.31,-2 c 0,-0.2 0,-0.29 0.27,-0.29 h 1.68 a 0.37,0.37 0 0 1 0.33,0.23 1.31,1.31 0 0 0 0.61,0.71 2.34,2.34 0 0 0 1.12,0.26 1.77,1.77 0 0 0 1.29,-0.46 1.7,1.7 0 0 0 0.47,-1.25 v -0.63 a 3.35,3.35 0 0 1 -2.08,0.65 3.88,3.88 0 0 1 -2.84,-1.09 4,4 0 0 1 0,-5.56 3.91,3.91 0 0 1 2.84,-1.08 3.36,3.36 0 0 1 2.13,0.69 v -0.16 a 0.26,0.26 0 0 1 0.28,-0.29 z m -3.88,5.72 a 1.76,1.76 0 0 0 1.37,-0.59 2.45,2.45 0 0 0 0,-3 1.75,1.75 0 0 0 -1.36,-0.58 1.8,1.8 0 0 0 -1.39,0.59 2.12,2.12 0 0 0 -0.54,1.5 2.16,2.16 0 0 0 0.53,1.49 1.81,1.81 0 0 0 1.39,0.59 z"
     style="fill:#ffffff"
     id="path8" />
  <path
     d="m 66.57,18.13472 a 4.73,4.73 0 0 1 -6,0 4.07,4.07 0 0 1 0,-5.63 4.74,4.74 0 0 1 6,0 4.06,4.06 0 0 1 0,5.62 z m -4.43,-1.32 a 2,2 0 0 0 1.44,0.55 2,2 0 0 0 1.43,-0.55 2.27,2.27 0 0 0 0,-2.94 2,2 0 0 0 -1.43,-0.55 2,2 0 0 0 -1.44,0.55 2.27,2.27 0 0 0 0,2.94 z"
     style="fill:#ffffff"
     id="path10" />
  <path
     d="m 71.31,9.9847201 a 1.45,1.45 0 0 1 -1.91,0 1.21,1.21 0 0 1 0,-1.76 1.48,1.48 0 0 1 1.91,0 1.21,1.21 0 0 1 0,1.76 z m 0.21,9.2199999 a 2.69,2.69 0 0 1 -1.67,-0.48 1.58,1.58 0 0 1 -0.62,-1.31 v -5.44 a 0.26,0.26 0 0 1 0.29,-0.29 h 1.68 c 0.19,0 0.28,0.1 0.28,0.29 v 4.72 q 0,0.57 0.51,0.57 a 1.55,1.55 0 0 0 0.45,-0.05 c 0.2,0 0.31,0.06 0.32,0.24 l 0.15,1.25 a 0.26,0.26 0 0 1 -0.24,0.31 3.79,3.79 0 0 1 -1.15,0.19 z"
     style="fill:#ffffff"
     id="path12" />
  <path
     d="m 79.09,11.44472 a 3.92,3.92 0 0 1 2.86,1.08 4.1,4.1 0 0 1 0,5.59 3.89,3.89 0 0 1 -2.86,1.09 3.44,3.44 0 0 1 -2.09,-0.65 v 3.61 c 0,0.19 -0.1,0.28 -0.29,0.28 h -1.68 a 0.24,0.24 0 0 1 -0.28,-0.28 v -8.2 a 0.52,0.52 0 0 0 -0.59,-0.59 h -0.33 q -0.33,0 -0.33,-0.24 v -1.18 a 0.32,0.32 0 0 1 0.23,-0.33 3,3 0 0 1 1.08,-0.18 1.85,1.85 0 0 1 1.81,1 3.37,3.37 0 0 1 2.47,-1 z m -1.56,5.37 a 1.91,1.91 0 0 0 2.76,0 2.16,2.16 0 0 0 0.55,-1.53 2.13,2.13 0 0 0 -0.55,-1.53 1.91,1.91 0 0 0 -2.76,0 2.21,2.21 0 0 0 -0.53,1.53 2.24,2.24 0 0 0 0.53,1.53 z"
     style="fill:#ffffff"
     id="path14" />
  <path
     d="m 87.77,19.20472 a 4.82,4.82 0 0 1 -2.57,-0.62 2.44,2.44 0 0 1 -1.16,-1.77 c 0,-0.2 0.07,-0.3 0.29,-0.3 h 1.47 a 0.38,0.38 0 0 1 0.33,0.22 c 0.21,0.54 0.76,0.81 1.64,0.81 a 1.87,1.87 0 0 0 0.89,-0.18 0.58,0.58 0 0 0 0.34,-0.49 c 0,-0.26 -0.16,-0.44 -0.48,-0.56 a 5.41,5.41 0 0 0 -1.17,-0.25 11.12,11.12 0 0 1 -1.4,-0.25 2.3,2.3 0 0 1 -1.17,-0.67 2.14,2.14 0 0 1 0.43,-3.1 4.12,4.12 0 0 1 2.42,-0.64 4.42,4.42 0 0 1 2.36,0.59 2.23,2.23 0 0 1 1.1,1.57 q 0,0.3 -0.27,0.3 h -1.48 a 0.31,0.31 0 0 1 -0.3,-0.18 1,1 0 0 0 -0.52,-0.53 1.76,1.76 0 0 0 -0.86,-0.2 1.74,1.74 0 0 0 -0.85,0.17 0.5,0.5 0 0 0 -0.32,0.46 0.64,0.64 0 0 0 0.48,0.59 5.42,5.42 0 0 0 1.19,0.3 13.08,13.08 0 0 1 1.39,0.26 2.3,2.3 0 0 1 1.17,0.67 1.89,1.89 0 0 1 0.49,1.37 2,2 0 0 1 -0.93,1.74 4.37,4.37 0 0 1 -2.51,0.69 z"
     style="fill:#ffffff"
     id="path16" />
  <path
     d="m 101.78,18.70472 a 0.27,0.27 0 0 1 -0.23,0.31 3.86,3.86 0 0 1 -1.13,0.19 2.22,2.22 0 0 1 -2,-0.87 3.62,3.62 0 0 1 -2.55,0.87 3.1,3.1 0 0 1 -2.34,-0.91 3.28,3.28 0 0 1 -0.89,-2.41 v -3.91 c 0,-0.19 0.09,-0.29 0.28,-0.29 h 1.68 c 0.19,0 0.28,0.1 0.28,0.29 v 3.61 a 1.77,1.77 0 0 0 0.43,1.23 1.5,1.5 0 0 0 1.15,0.47 1.66,1.66 0 0 0 1.2,-0.44 1.6,1.6 0 0 0 0.45,-1.19 v -3.68 c 0,-0.19 0.09,-0.29 0.28,-0.29 h 1.7 c 0.19,0 0.28,0.1 0.28,0.29 v 4.71 c 0,0.39 0.17,0.58 0.5,0.58 a 1.58,1.58 0 0 0 0.46,-0.05 0.26,0.26 0 0 1 0.33,0.24 z"
     style="fill:#ffffff"
     id="path18" />
  <path
     d="m 117.67,18.70472 a 0.25,0.25 0 0 1 -0.23,0.31 3.88,3.88 0 0 1 -1.15,0.19 2.67,2.67 0 0 1 -1.67,-0.48 1.56,1.56 0 0 1 -0.67,-1.31 v -2.35 a 1.77,1.77 0 0 0 -0.42,-1.23 1.42,1.42 0 0 0 -1.12,-0.47 1.25,1.25 0 0 0 -1,0.44 1.78,1.78 0 0 0 -0.38,1.18 v 3.69 c 0,0.19 -0.09,0.29 -0.28,0.29 h -1.69 a 0.26,0.26 0 0 1 -0.29,-0.29 v -3.61 a 1.85,1.85 0 0 0 -0.39,-1.23 1.3,1.3 0 0 0 -1,-0.47 1.45,1.45 0 0 0 -1.1,0.44 1.65,1.65 0 0 0 -0.41,1.18 v 3.69 a 0.26,0.26 0 0 1 -0.29,0.29 h -1.63 c -0.19,0 -0.28,-0.1 -0.28,-0.29 v -4.71 a 0.52,0.52 0 0 0 -0.59,-0.59 h -0.33 q -0.33,0 -0.33,-0.24 v -1.18 a 0.32,0.32 0 0 1 0.23,-0.33 3,3 0 0 1 1.08,-0.18 1.88,1.88 0 0 1 1.78,0.92 3.38,3.38 0 0 1 2.54,-0.92 2.87,2.87 0 0 1 2.37,1.06 3.3,3.3 0 0 1 2.62,-1.06 3.16,3.16 0 0 1 2.37,0.91 3.26,3.26 0 0 1 0.89,2.41 v 1.93 c 0,0.38 0.17,0.57 0.49,0.57 a 1.5,1.5 0 0 0 0.46,-0.05 q 0.31,0 0.33,0.24 z"
     style="fill:#ffffff"
     id="path20" />
  <path
     d="m 0.41,10.38472 a 13.69,13.69 0 0 1 26.57,0 h -1.2 a 9.69,9.69 0 0 0 -5.67,1.73 2.86,2.86 0 0 1 -0.3,0.19 h -0.14 a 2.86,2.86 0 0 1 -0.3,-0.19 10.17,10.17 0 0 0 -11.35,0 2.86,2.86 0 0 1 -0.3,0.19 H 7.58 a 2.86,2.86 0 0 1 -0.3,-0.19 9.69,9.69 0 0 0 -5.67,-1.73 z m 23.21,6.27 a 3.37,3.37 0 0 1 2.16,-0.71 h 1.61 v -3.21 h -1.61 a 6.38,6.38 0 0 0 -3.83,1.22 3.64,3.64 0 0 1 -4.32,0 6.8,6.8 0 0 0 -7.77,0 3.64,3.64 0 0 1 -4.32,0 6.38,6.38 0 0 0 -3.88,-1.22 H 0 v 3.21 h 1.61 a 3.37,3.37 0 0 1 2.16,0.71 6.78,6.78 0 0 0 7.76,0 3.39,3.39 0 0 1 2.16,-0.71 3.35,3.35 0 0 1 2.16,0.71 6.8,6.8 0 0 0 7.77,0 z m 0,5.74 a 3.37,3.37 0 0 1 2.16,-0.71 h 1.61 v -3.21 h -1.61 a 6.38,6.38 0 0 0 -3.83,1.22 3.64,3.64 0 0 1 -4.32,0 6.8,6.8 0 0 0 -7.77,0 3.64,3.64 0 0 1 -4.32,0 6.38,6.38 0 0 0 -3.88,-1.22 H 0 v 3.21 h 1.61 a 3.37,3.37 0 0 1 2.16,0.71 6.78,6.78 0 0 0 7.76,0 3.39,3.39 0 0 1 2.16,-0.71 3.35,3.35 0 0 1 2.16,0.71 6.8,6.8 0 0 0 7.77,0 z"
     style="fill:#ffffff"
     id="path22" />
  <metadata
     id="metadata16">
    <rdf:RDF>
      <cc:Work
         rdf:about="">
        <dc:title>logoipsum-3</dc:title>
      </cc:Work>
    </rdf:RDF>
  </metadata>
</svg>
