<?xml version="1.0" encoding="UTF-8" standalone="no"?>
<!-- Generator: Adobe Illustrator 27.0.0, SVG Export Plug-In . SVG Version: 6.00 Build 0)  -->

<svg
   version="1.1"
   id="Layer_1"
   x="0px"
   y="0px"
   viewBox="0 0 450 264.79099"
   xml:space="preserve"
   sodipodi:docname="logoipsum.svg"
   inkscape:version="1.3.2 (091e20ef0f, 2023-11-25, custom)"
   width="450"
   height="264.79099"
   xmlns:inkscape="http://www.inkscape.org/namespaces/inkscape"
   xmlns:sodipodi="http://sodipodi.sourceforge.net/DTD/sodipodi-0.dtd"
   xmlns="http://www.w3.org/2000/svg"
   xmlns:svg="http://www.w3.org/2000/svg"><defs
   id="defs149" /><sodipodi:namedview
   id="namedview149"
   pagecolor="#ffffff"
   bordercolor="#666666"
   borderopacity="1.0"
   inkscape:showpageshadow="2"
   inkscape:pageopacity="0.0"
   inkscape:pagecheckerboard="0"
   inkscape:deskcolor="#d1d1d1"
   inkscape:zoom="0.27923019"
   inkscape:cx="227.41094"
   inkscape:cy="-164.73863"
   inkscape:window-width="1916"
   inkscape:window-height="1034"
   inkscape:window-x="0"
   inkscape:window-y="0"
   inkscape:window-maximized="0"
   inkscape:current-layer="Layer_1" />
<g
   id="watermark_1_"
   transform="translate(-25,-117.605)">
	<g
   id="g70">
		<g
   id="watermark"
   style="opacity:0.61">
			<g
   id="g35">
				<g
   id="g24">
					<g
   id="g5">
						<g
   id="g1">
							<polygon
   style="fill:#ffffff"
   points="208.204,474.017 205.268,474.017 199.726,461.172 202.938,461.172 206.846,470.347 210.81,461.172 213.765,461.172 "
   id="polygon1" />
						</g>
						<g
   id="g2">
							<path
   style="fill:#ffffff"
   d="m 223.507,469.741 h -7.469 c 0.275,1.23 1.321,1.982 2.826,1.982 1.046,0 1.798,-0.312 2.477,-0.954 l 1.523,1.651 c -0.917,1.046 -2.294,1.597 -4.074,1.597 -3.413,0 -5.634,-2.147 -5.634,-5.083 0,-2.954 2.257,-5.083 5.267,-5.083 2.899,0 5.138,1.945 5.138,5.12 0.001,0.22 -0.035,0.532 -0.054,0.77 m -7.505,-1.67 h 4.863 c -0.202,-1.248 -1.138,-2.055 -2.422,-2.055 -1.304,0 -2.239,0.789 -2.441,2.055"
   id="path1" />
						</g>
						<g
   id="g3">
							<path
   style="fill:#ffffff"
   d="m 224.735,468.934 c 0,-2.973 2.294,-5.083 5.505,-5.083 2.074,0 3.707,0.899 4.423,2.514 l -2.22,1.193 c -0.532,-0.936 -1.321,-1.358 -2.221,-1.358 -1.45,0 -2.587,1.009 -2.587,2.734 0,1.725 1.138,2.734 2.587,2.734 0.899,0 1.688,-0.404 2.221,-1.358 l 2.22,1.211 c -0.716,1.578 -2.349,2.495 -4.423,2.495 -3.211,10e-4 -5.505,-2.109 -5.505,-5.082"
   id="path2" />
						</g>
						<g
   id="g4">
							<path
   style="fill:#ffffff"
   d="m 242.828,473.393 c -0.587,0.422 -1.45,0.624 -2.331,0.624 -2.33,0 -3.688,-1.193 -3.688,-3.542 v -4.055 h -1.523 v -2.202 h 1.523 v -2.404 h 2.863 v 2.404 h 2.459 v 2.202 h -2.459 v 4.019 c 0,0.844 0.458,1.303 1.229,1.303 0.422,0 0.844,-0.128 1.156,-0.367 z"
   id="path3" />
						</g>
					</g>
					<g
   id="g6">
						<path
   style="fill:#ffffff"
   d="m 262.474,463.997 v 2.643 c -0.238,-0.018 -0.422,-0.037 -0.642,-0.037 -1.578,0 -2.624,0.862 -2.624,2.753 v 4.661 h -2.863 v -9.873 h 2.734 v 1.303 c 0.697,-0.954 1.872,-1.45 3.395,-1.45"
   id="path5" />
					</g>
					<g
   id="g7">
						<path
   style="fill:#ffffff"
   d="m 263.299,472.53 1.009,-2.239 c 1.083,0.789 2.697,1.339 4.239,1.339 1.762,0 2.477,-0.587 2.477,-1.376 0,-2.404 -7.469,-0.752 -7.469,-5.524 0,-2.184 1.762,-4 5.413,-4 1.615,0 3.267,0.385 4.459,1.138 l -0.918,2.257 c -1.193,-0.679 -2.422,-1.009 -3.56,-1.009 -1.761,0 -2.44,0.66 -2.44,1.468 0,2.367 7.468,0.734 7.468,5.45 0,2.147 -1.78,3.982 -5.45,3.982 -2.035,10e-4 -4.09,-0.605 -5.228,-1.486"
   id="path6" />
					</g>
					<g
   id="g8">
						<path
   style="fill:#ffffff"
   d="m 285.428,469.741 h -7.469 c 0.275,1.23 1.321,1.982 2.826,1.982 1.046,0 1.798,-0.312 2.477,-0.954 l 1.523,1.651 c -0.918,1.046 -2.294,1.597 -4.074,1.597 -3.413,0 -5.634,-2.147 -5.634,-5.083 0,-2.954 2.257,-5.083 5.267,-5.083 2.9,0 5.138,1.945 5.138,5.12 0.002,0.22 -0.035,0.532 -0.054,0.77 m -7.505,-1.67 h 4.863 c -0.202,-1.248 -1.138,-2.055 -2.422,-2.055 -1.303,0 -2.239,0.789 -2.441,2.055"
   id="path7" />
					</g>
					<g
   id="g9">
						<path
   style="fill:#ffffff"
   d="m 297.007,469.741 h -7.469 c 0.275,1.23 1.321,1.982 2.826,1.982 1.046,0 1.798,-0.312 2.477,-0.954 l 1.523,1.651 c -0.918,1.046 -2.294,1.597 -4.074,1.597 -3.413,0 -5.634,-2.147 -5.634,-5.083 0,-2.954 2.257,-5.083 5.267,-5.083 2.899,0 5.138,1.945 5.138,5.12 0.001,0.22 -0.036,0.532 -0.054,0.77 m -7.506,-1.67 h 4.863 c -0.202,-1.248 -1.138,-2.055 -2.422,-2.055 -1.303,0 -2.239,0.789 -2.441,2.055"
   id="path8" />
					</g>
					<g
   id="g10">
						<polygon
   style="fill:#ffffff"
   points="309.429,464.144 305.318,468.328 309.796,474.017 306.327,474.017 303.208,470.145 301.831,471.503 301.831,474.017 298.969,474.017 298.969,460.401 301.831,460.401 301.831,468.108 306.016,464.144 "
   id="polygon9" />
					</g>
					<g
   id="g11">
						<path
   style="fill:#ffffff"
   d="m 256.601,475.359 v 0 l -2.86,-2.86 c -0.435,0.508 -0.953,0.943 -1.534,1.284 -0.092,0.069 -0.186,0.136 -0.283,0.199 l 3.027,3.027 c 0.456,0.456 1.195,0.456 1.65,0 0.456,-0.455 0.456,-1.194 0,-1.65"
   id="path10" />
					</g>
					<g
   id="g12">
						<path
   style="fill:#ffffff"
   d="m 249.984,463.244 c 0.221,-0.173 0.495,-0.281 0.797,-0.281 0.042,0 0.083,0.002 0.124,0.006 -0.214,-0.156 -0.478,-0.249 -0.764,-0.249 -0.395,0 -0.744,0.18 -0.981,0.458 -0.051,0 -0.1,0.006 -0.151,0.008 0.039,-0.077 0.064,-0.162 0.064,-0.255 0,-0.234 -0.143,-0.434 -0.346,-0.519 0.087,0.126 0.138,0.279 0.138,0.445 0,0.122 -0.031,0.237 -0.081,0.341 -2.811,0.201 -5.03,2.539 -5.03,5.4 0,2.993 2.426,5.42 5.42,5.42 2.993,0 5.42,-2.426 5.42,-5.42 0.001,-2.719 -2.001,-4.963 -4.61,-5.354 m -2.001,1.412 c 0.435,0 0.844,0.112 1.199,0.309 0.374,-0.245 0.82,-0.387 1.299,-0.387 0.711,0 1.348,0.312 1.784,0.806 -0.435,-0.379 -1.004,-0.61 -1.627,-0.61 -0.449,0 -0.87,0.12 -1.234,0.329 -0.079,0.046 -0.156,0.096 -0.229,0.15 -0.065,-0.048 -0.133,-0.093 -0.204,-0.134 -0.369,-0.219 -0.8,-0.344 -1.26,-0.344 -0.3,0 -0.588,0.054 -0.854,0.152 0.339,-0.173 0.721,-0.271 1.126,-0.271 m 3.789,4.442 c 0.115,0.305 0.181,0.634 0.181,0.979 0,1.534 -1.244,2.777 -2.778,2.777 -1.534,0 -2.777,-1.243 -2.777,-2.777 0,-0.345 0.066,-0.674 0.181,-0.979 -0.62,-0.382 -1.035,-1.064 -1.035,-1.846 0,-1.197 0.971,-2.168 2.168,-2.168 0.565,0 1.078,0.218 1.463,0.572 0.386,-0.354 0.899,-0.572 1.464,-0.572 1.197,0 2.168,0.971 2.168,2.168 0,0.782 -0.415,1.464 -1.035,1.846"
   id="path11" />
					</g>
					<g
   id="g13">
						<path
   style="fill:#ffffff"
   d="m 251.666,467.061 c 0,0.497 -0.404,0.901 -0.901,0.901 -0.497,0 -0.901,-0.404 -0.901,-0.901 0,-0.497 0.404,-0.901 0.901,-0.901 0.101,0 0.197,0.017 0.287,0.047 -0.03,0.062 -0.045,0.132 -0.045,0.204 0,0.273 0.221,0.494 0.494,0.494 0.05,0 0.099,-0.008 0.146,-0.022 0.013,0.058 0.019,0.117 0.019,0.178"
   id="path12" />
					</g>
					<g
   id="g14">
						<path
   style="fill:#ffffff"
   d="m 248.255,467.061 c 0,0.376 -0.305,0.681 -0.681,0.681 -0.376,0 -0.681,-0.305 -0.681,-0.681 0,-0.376 0.305,-0.681 0.681,-0.681 0.076,0 0.149,0.013 0.217,0.035 -0.023,0.047 -0.034,0.1 -0.034,0.155 0,0.206 0.167,0.374 0.374,0.374 0.038,0 0.075,-0.006 0.11,-0.017 0.009,0.043 0.014,0.088 0.014,0.134"
   id="path13" />
					</g>
					<g
   id="g23">
						<g
   id="g18">
							<g
   id="g15">
								<rect
   x="242.908"
   y="467.82999"
   style="fill:#ffffff"
   width="0.616"
   height="0.616"
   id="rect14" />
							</g>
							<g
   id="g16">
								<rect
   x="254.827"
   y="467.82999"
   style="fill:#ffffff"
   width="0.616"
   height="0.616"
   id="rect15" />
							</g>
							<g
   id="g17">
								<path
   style="fill:#ffffff"
   d="m 255.205,468.082 h -0.14 c 0,-3.248 -2.642,-5.89 -5.89,-5.89 -3.248,0 -5.89,2.642 -5.89,5.89 h -0.14 c 0,-1.611 0.627,-3.125 1.766,-4.264 1.139,-1.139 2.653,-1.766 4.264,-1.766 1.611,0 3.125,0.627 4.264,1.766 1.139,1.139 1.766,2.653 1.766,4.264"
   id="path16" />
							</g>
						</g>
						<g
   id="g19">
							<rect
   x="248.868"
   y="461.814"
   style="fill:#ffffff"
   width="0.616"
   height="0.616"
   id="rect18" />
						</g>
						<g
   id="g20">
							<rect
   x="244.95"
   y="462.052"
   style="fill:#ffffff"
   width="8.4499998"
   height="0.14"
   id="rect19" />
						</g>
						<g
   id="g21">
							<path
   style="fill:#ffffff"
   d="m 245.174,462.15 c 0,0.108 -0.088,0.196 -0.196,0.196 -0.108,0 -0.196,-0.088 -0.196,-0.196 0,-0.108 0.088,-0.196 0.196,-0.196 0.108,0 0.196,0.088 0.196,0.196"
   id="path20" />
						</g>
						<g
   id="g22">
							<path
   style="fill:#ffffff"
   d="m 253.596,462.15 c 0,0.108 -0.088,0.196 -0.196,0.196 -0.108,0 -0.196,-0.088 -0.196,-0.196 0,-0.108 0.088,-0.196 0.196,-0.196 0.109,0 0.196,0.088 0.196,0.196"
   id="path21" />
						</g>
					</g>
				</g>
				<g
   id="g25">
					<path
   style="fill:#ffffff"
   d="m 314.356,473.409 c 0,1.559 -2.364,1.559 -2.364,0 10e-4,-1.558 2.364,-1.558 2.364,0 z"
   id="path24" />
				</g>
				<g
   id="g34">
					<g
   id="g29">
						<g
   id="g26">
							<path
   style="fill:#ffffff"
   d="m 161.739,466.549 1.772,6.088 1.855,-6.088 h 2.215 l -2.823,8.14 h -2.33 l -0.837,-2.396 -0.722,-2.708 -0.722,2.708 -0.837,2.396 h -2.33 l -2.839,-8.14 h 2.231 l 1.855,6.088 1.756,-6.088 z"
   id="path25" />
						</g>
						<g
   id="g27">
							<path
   style="fill:#ffffff"
   d="m 176.713,466.549 1.772,6.088 1.855,-6.088 h 2.215 l -2.823,8.14 h -2.33 l -0.837,-2.396 -0.722,-2.708 -0.722,2.708 -0.837,2.396 h -2.33 l -2.839,-8.14 h 2.231 l 1.855,6.088 1.756,-6.088 z"
   id="path26" />
						</g>
						<g
   id="g28">
							<path
   style="fill:#ffffff"
   d="m 191.687,466.549 1.772,6.088 1.855,-6.088 h 2.215 l -2.823,8.14 h -2.33 l -0.837,-2.396 -0.722,-2.708 -0.722,2.708 -0.837,2.396 h -2.33 l -2.839,-8.14 h 2.231 l 1.855,6.088 1.756,-6.088 z"
   id="path27" />
						</g>
					</g>
					<g
   id="g30">
						<path
   style="fill:#ffffff"
   d="m 200.908,473.52 c 0,1.559 -2.364,1.559 -2.364,0 10e-4,-1.558 2.364,-1.558 2.364,0 z"
   id="path29" />
					</g>
					<g
   id="g31">
						<path
   style="fill:#ffffff"
   d="m 322.71,473.409 c -0.935,0.919 -1.919,1.28 -3.117,1.28 -2.346,0 -4.3,-1.411 -4.3,-4.282 0,-2.871 1.953,-4.284 4.3,-4.284 1.149,0 2.035,0.329 2.921,1.199 l -1.264,1.329 c -0.476,-0.428 -1.066,-0.64 -1.623,-0.64 -1.346,0 -2.33,0.985 -2.33,2.396 0,1.542 1.05,2.362 2.297,2.362 0.64,0 1.28,-0.18 1.772,-0.672 z"
   id="path30" />
					</g>
					<g
   id="g32">
						<path
   style="fill:#ffffff"
   d="m 331.805,470.472 c 0,2.33 -1.591,4.217 -4.217,4.217 -2.626,0 -4.201,-1.887 -4.201,-4.217 0,-2.314 1.609,-4.217 4.185,-4.217 2.577,0 4.233,1.903 4.233,4.217 z m -6.416,0 c 0,1.231 0.739,2.38 2.199,2.38 1.46,0 2.199,-1.149 2.199,-2.38 0,-1.215 -0.854,-2.396 -2.199,-2.396 -1.444,10e-4 -2.199,1.182 -2.199,2.396 z"
   id="path31" />
					</g>
					<g
   id="g33">
						<path
   style="fill:#ffffff"
   d="m 338.572,474.689 v -4.332 c 0,-1.068 -0.559,-2.035 -1.658,-2.035 -1.082,0 -1.722,0.967 -1.722,2.035 v 4.332 h -2.003 v -8.107 h 1.855 l 0.148,0.985 c 0.426,-0.82 1.362,-1.116 2.133,-1.116 0.969,0 1.937,0.394 2.396,1.51 0.723,-1.149 1.658,-1.478 2.708,-1.478 2.297,0 3.43,1.412 3.43,3.84 v 4.365 h -2.003 v -4.365 c 0,-1.066 -0.442,-1.97 -1.526,-1.97 -1.082,0 -1.756,0.935 -1.756,2.003 v 4.332 h -2.002 z"
   id="path32" />
					</g>
				</g>
			</g>
		</g>
		<g
   style="opacity:0.61"
   id="g68">
			<g
   id="g50">
				<g
   id="g36">
					<path
   style="fill:#ffffff"
   d="m 345.988,431.299 c -0.006,-1.224 -0.959,-2.121 -2.189,-2.14 -0.924,-0.014 -0.832,0.12 -0.834,-0.867 -0.003,-1.097 -0.007,-2.194 0.003,-3.292 0.003,-0.379 -0.112,-0.691 -0.362,-0.976 -2.342,-2.668 -4.678,-5.342 -7.019,-8.011 -0.12,-0.137 -0.275,-0.244 -0.414,-0.366 -6.214,0 -12.427,0 -18.641,0 -0.794,0.293 -1.14,0.868 -1.138,1.709 0.01,3.748 0.004,7.496 0.004,11.243 0,0.556 -0.003,0.589 -0.55,0.551 -1.497,-0.102 -2.516,0.986 -2.497,2.492 0.044,3.476 0.013,6.953 0.014,10.429 10e-4,1.58 0.867,2.443 2.45,2.449 0.582,0.002 0.582,0.002 0.582,0.6 0,2.219 -10e-4,4.438 0.001,6.657 10e-4,1.192 0.58,1.771 1.768,1.771 8.013,10e-4 16.027,10e-4 24.04,0 1.168,0 1.755,-0.583 1.757,-1.745 0.002,-2.256 0,-4.512 10e-4,-6.768 0,-0.512 0.002,-0.511 0.52,-0.515 0.271,-0.002 0.541,0.008 0.809,-0.058 0.996,-0.246 1.69,-1.044 1.694,-2.069 0.016,-3.697 0.018,-7.396 10e-4,-11.094 z m -28.451,-14.137 c 5.337,0 10.674,0 16.01,0 0.548,0 0.554,0.007 0.554,0.561 10e-4,2.243 -10e-4,4.486 10e-4,6.73 0.001,0.811 0.249,1.059 1.06,1.059 1.91,10e-4 3.821,0 5.731,10e-4 0.458,0 0.479,0.021 0.481,0.483 0.003,0.887 0.002,1.775 0,2.662 -0.001,0.477 -0.024,0.498 -0.504,0.499 -3.895,0.001 -7.79,0 -11.684,0 -3.882,0 -7.765,0 -11.647,0 -0.55,0 -0.552,-10e-4 -0.552,-0.561 -0.001,-3.624 -0.001,-7.247 0,-10.871 0,-0.559 0.004,-0.563 0.55,-0.563 z m 23.285,34.417 c -3.883,10e-4 -7.766,0 -11.65,0 -3.871,0 -7.742,0 -11.613,0 -0.572,0 -0.574,-0.002 -0.574,-0.579 -0.001,-1.997 -0.001,-3.994 10e-4,-5.991 0,-0.464 0.023,-0.486 0.478,-0.487 7.803,-10e-4 15.607,-10e-4 23.41,0 0.478,0 0.499,0.02 0.499,0.503 0.002,1.997 0.001,3.994 0,5.991 0.002,0.558 -0.003,0.563 -0.551,0.563 z"
   id="path35" />
				</g>
				<g
   id="g49">
					<g
   id="g37">
						<rect
   x="327.418"
   y="417.05301"
   style="fill:#ffffff"
   width="1.757"
   height="1.054"
   id="rect36" />
					</g>
					<g
   id="g38">
						<rect
   x="325.66199"
   y="418.10699"
   style="fill:#ffffff"
   width="1.757"
   height="1.054"
   id="rect37" />
					</g>
					<g
   id="g39">
						<rect
   x="327.418"
   y="419.16101"
   style="fill:#ffffff"
   width="1.757"
   height="1.054"
   id="rect38" />
					</g>
					<g
   id="g40">
						<rect
   x="325.66199"
   y="420.215"
   style="fill:#ffffff"
   width="1.757"
   height="1.054"
   id="rect39" />
					</g>
					<g
   id="g41">
						<rect
   x="327.418"
   y="421.26901"
   style="fill:#ffffff"
   width="1.757"
   height="1.054"
   id="rect40" />
					</g>
					<g
   id="g42">
						<rect
   x="325.66199"
   y="422.323"
   style="fill:#ffffff"
   width="1.757"
   height="1.054"
   id="rect41" />
					</g>
					<g
   id="g43">
						<rect
   x="327.418"
   y="423.37799"
   style="fill:#ffffff"
   width="1.757"
   height="1.054"
   id="rect42" />
					</g>
					<g
   id="g44">
						<rect
   x="325.66199"
   y="424.43201"
   style="fill:#ffffff"
   width="1.757"
   height="1.054"
   id="rect43" />
					</g>
					<g
   id="g45">
						<rect
   x="327.418"
   y="425.48599"
   style="fill:#ffffff"
   width="1.757"
   height="1.054"
   id="rect44" />
					</g>
					<g
   id="g46">
						<rect
   x="325.66199"
   y="426.54001"
   style="fill:#ffffff"
   width="1.757"
   height="1.054"
   id="rect45" />
					</g>
					<g
   id="g47">
						<rect
   x="327.418"
   y="427.59399"
   style="fill:#ffffff"
   width="1.757"
   height="1.054"
   id="rect46" />
					</g>
					<g
   id="g48">
						<rect
   x="325.66199"
   y="428.64801"
   style="fill:#ffffff"
   width="1.757"
   height="1.054"
   id="rect47" />
					</g>
				</g>
			</g>
			<g
   id="g51">
				<path
   style="fill:#ffffff"
   d="m 187.637,431.299 c -0.006,-1.224 -0.959,-2.121 -2.189,-2.14 -0.924,-0.014 -0.832,0.12 -0.834,-0.867 -0.003,-1.097 -0.007,-2.194 0.003,-3.292 0.003,-0.379 -0.112,-0.691 -0.362,-0.976 -2.342,-2.668 -4.678,-5.342 -7.019,-8.011 -0.12,-0.137 -0.275,-0.244 -0.414,-0.366 -6.214,0 -12.427,0 -18.641,0 -0.794,0.293 -1.14,0.868 -1.138,1.709 0.01,3.748 0.004,7.496 0.004,11.243 0,0.556 -0.003,0.589 -0.55,0.551 -1.497,-0.102 -2.516,0.986 -2.497,2.492 0.044,3.476 0.013,6.953 0.014,10.429 10e-4,1.58 0.867,2.443 2.45,2.449 0.582,0.002 0.582,0.002 0.582,0.6 0,2.219 -0.001,4.438 0.001,6.657 0.001,1.192 0.58,1.771 1.768,1.771 8.013,10e-4 16.027,10e-4 24.04,0 1.168,0 1.755,-0.583 1.757,-1.745 0.002,-2.256 0,-4.512 0.001,-6.768 0,-0.512 0.002,-0.511 0.52,-0.515 0.271,-0.002 0.541,0.008 0.809,-0.058 0.996,-0.246 1.69,-1.044 1.694,-2.069 0.016,-3.697 0.019,-7.396 0.001,-11.094 z m -28.45,-14.137 c 5.337,0 10.674,0 16.01,0 0.548,0 0.554,0.007 0.554,0.561 0.001,2.243 -0.001,4.486 0.001,6.73 10e-4,0.811 0.249,1.059 1.06,1.059 1.91,10e-4 3.821,0 5.731,10e-4 0.458,0 0.479,0.021 0.481,0.483 0.003,0.887 0.002,1.775 0,2.662 -0.001,0.477 -0.024,0.498 -0.504,0.499 -3.895,0.001 -7.79,0 -11.684,0 -3.882,0 -7.765,0 -11.647,0 -0.55,0 -0.552,-10e-4 -0.552,-0.561 -0.001,-3.624 -0.001,-7.247 0,-10.871 -0.001,-0.559 0.003,-0.563 0.55,-0.563 z m 23.285,34.417 c -3.883,10e-4 -7.766,0 -11.65,0 -3.871,0 -7.742,0 -11.613,0 -0.572,0 -0.574,-0.002 -0.574,-0.579 -0.001,-1.997 -0.001,-3.994 0.001,-5.991 0,-0.464 0.023,-0.486 0.478,-0.487 7.803,-10e-4 15.607,-10e-4 23.41,0 0.478,0 0.499,0.02 0.499,0.503 0.002,1.997 0.001,3.994 0,5.991 0.001,0.558 -0.004,0.563 -0.551,0.563 z"
   id="path50" />
			</g>
			<g
   id="g53">
				<path
   style="fill:#ffffff"
   d="m 159.779,440.669 v -7.897 h 2.779 c 0.375,0 0.726,0.061 1.053,0.182 0.327,0.121 0.612,0.292 0.855,0.513 0.242,0.221 0.434,0.483 0.573,0.789 0.14,0.305 0.21,0.642 0.21,1.009 0,0.375 -0.07,0.715 -0.21,1.02 -0.14,0.305 -0.331,0.568 -0.573,0.789 -0.243,0.221 -0.528,0.392 -0.855,0.513 -0.327,0.121 -0.678,0.182 -1.053,0.182 h -1.29 v 2.901 h -1.489 z m 2.801,-4.313 c 0.39,0 0.684,-0.111 0.882,-0.331 0.199,-0.22 0.298,-0.474 0.298,-0.761 0,-0.14 -0.024,-0.276 -0.072,-0.408 -0.048,-0.132 -0.121,-0.248 -0.221,-0.347 -0.099,-0.099 -0.223,-0.178 -0.37,-0.237 -0.147,-0.059 -0.32,-0.089 -0.518,-0.089 h -1.312 v 2.173 z"
   id="path51" />
				<path
   style="fill:#ffffff"
   d="m 166.308,432.771 h 1.731 l 3.177,5.294 h 0.088 l -0.088,-1.522 v -3.772 h 1.478 v 7.897 h -1.566 l -3.353,-5.592 h -0.088 l 0.088,1.522 v 4.07 h -1.467 z"
   id="path52" />
				<path
   style="fill:#ffffff"
   d="m 177.922,436.334 h 3.872 c 0.022,0.089 0.04,0.195 0.055,0.32 0.014,0.125 0.022,0.25 0.022,0.375 0,0.507 -0.077,0.985 -0.231,1.434 -0.154,0.449 -0.397,0.849 -0.728,1.202 -0.353,0.375 -0.776,0.666 -1.268,0.871 -0.493,0.206 -1.055,0.309 -1.688,0.309 -0.574,0 -1.114,-0.103 -1.622,-0.309 -0.507,-0.206 -0.948,-0.492 -1.323,-0.86 -0.375,-0.367 -0.673,-0.803 -0.894,-1.307 -0.221,-0.504 -0.331,-1.053 -0.331,-1.649 0,-0.595 0.11,-1.145 0.331,-1.649 0.221,-0.504 0.518,-0.939 0.894,-1.307 0.375,-0.367 0.816,-0.654 1.323,-0.86 0.507,-0.206 1.048,-0.309 1.622,-0.309 0.64,0 1.211,0.11 1.715,0.331 0.504,0.221 0.935,0.526 1.296,0.915 l -1.025,1.004 c -0.258,-0.272 -0.544,-0.48 -0.861,-0.623 -0.316,-0.143 -0.695,-0.215 -1.136,-0.215 -0.361,0 -0.703,0.065 -1.026,0.193 -0.324,0.129 -0.607,0.311 -0.85,0.546 -0.242,0.235 -0.436,0.52 -0.579,0.855 -0.143,0.335 -0.215,0.708 -0.215,1.119 0,0.412 0.072,0.785 0.215,1.12 0.143,0.335 0.338,0.62 0.584,0.855 0.246,0.235 0.531,0.418 0.855,0.546 0.323,0.129 0.669,0.193 1.037,0.193 0.419,0 0.773,-0.061 1.064,-0.182 0.29,-0.121 0.538,-0.278 0.744,-0.469 0.148,-0.132 0.275,-0.3 0.381,-0.502 0.106,-0.202 0.189,-0.428 0.248,-0.678 h -2.482 v -1.269 z"
   id="path53" />
			</g>
			<g
   id="g54">
				<path
   style="fill:#ffffff"
   d="m 224.019,431.299 c -0.006,-1.224 -0.959,-2.121 -2.189,-2.14 -0.924,-0.014 -0.832,0.12 -0.834,-0.867 -0.003,-1.097 -0.007,-2.194 0.003,-3.292 0.003,-0.379 -0.112,-0.691 -0.362,-0.976 -2.342,-2.668 -4.678,-5.342 -7.019,-8.011 -0.12,-0.137 -0.275,-0.244 -0.414,-0.366 -6.214,0 -12.427,0 -18.641,0 -0.794,0.293 -1.14,0.868 -1.138,1.709 0.01,3.748 0.004,7.496 0.004,11.243 0,0.556 -0.003,0.589 -0.55,0.551 -1.497,-0.102 -2.516,0.986 -2.497,2.492 0.044,3.476 0.013,6.953 0.014,10.429 0.001,1.58 0.867,2.443 2.45,2.449 0.582,0.002 0.582,0.002 0.582,0.6 0,2.219 -0.001,4.438 0.001,6.657 0.001,1.192 0.58,1.771 1.768,1.771 8.013,10e-4 16.027,10e-4 24.04,0 1.168,0 1.755,-0.583 1.757,-1.745 0.002,-2.256 0,-4.512 0.001,-6.768 0,-0.512 0.002,-0.511 0.52,-0.515 0.271,-0.002 0.541,0.008 0.809,-0.058 0.997,-0.246 1.69,-1.044 1.694,-2.069 0.016,-3.697 0.018,-7.396 0.001,-11.094 z m -28.451,-14.137 c 5.337,0 10.674,0 16.01,0 0.548,0 0.554,0.007 0.554,0.561 0.001,2.243 -0.001,4.486 0.001,6.73 10e-4,0.811 0.249,1.059 1.06,1.059 1.91,10e-4 3.821,0 5.731,10e-4 0.458,0 0.479,0.021 0.481,0.483 0.003,0.887 0.002,1.775 0,2.662 -0.001,0.477 -0.024,0.498 -0.504,0.499 -3.895,0.001 -7.79,0 -11.684,0 -3.882,0 -7.765,0 -11.647,0 -0.55,0 -0.552,-10e-4 -0.552,-0.561 -0.001,-3.624 -0.001,-7.247 0,-10.871 0,-0.559 0.004,-0.563 0.55,-0.563 z m 23.286,34.417 c -3.883,10e-4 -7.766,0 -11.65,0 -3.871,0 -7.742,0 -11.613,0 -0.572,0 -0.574,-0.002 -0.574,-0.579 -0.001,-1.997 -0.001,-3.994 0.001,-5.991 0,-0.464 0.023,-0.486 0.478,-0.487 7.803,-10e-4 15.607,-10e-4 23.41,0 0.478,0 0.499,0.02 0.499,0.503 0.002,1.997 0.001,3.994 0,5.991 0.001,0.558 -0.004,0.563 -0.551,0.563 z"
   id="path54" />
			</g>
			<g
   id="g56">
				<path
   style="fill:#ffffff"
   d="m 205.111,432.771 h 1.699 l 2.967,7.897 h -1.644 l -0.651,-1.886 h -3.044 l -0.651,1.886 h -1.643 z m 1.886,4.644 -0.706,-1.974 -0.287,-0.96 h -0.088 l -0.287,0.96 -0.706,1.974 z"
   id="path55" />
				<path
   style="fill:#ffffff"
   d="m 211.331,434.536 c -0.125,0 -0.245,-0.024 -0.359,-0.072 -0.114,-0.048 -0.213,-0.114 -0.298,-0.199 -0.084,-0.084 -0.151,-0.182 -0.198,-0.292 -0.048,-0.11 -0.072,-0.232 -0.072,-0.364 0,-0.132 0.024,-0.254 0.072,-0.364 0.048,-0.11 0.114,-0.208 0.198,-0.292 0.084,-0.084 0.184,-0.151 0.298,-0.198 0.114,-0.048 0.233,-0.072 0.359,-0.072 0.257,0 0.478,0.09 0.662,0.27 0.184,0.181 0.276,0.399 0.276,0.656 0,0.257 -0.092,0.476 -0.276,0.656 -0.184,0.181 -0.404,0.271 -0.662,0.271 z m -0.716,6.133 v -5.404 h 1.445 v 5.404 z"
   id="path56" />
			</g>
			<g
   id="g57">
				<path
   style="fill:#ffffff"
   d="m 261.044,431.299 c -0.006,-1.224 -0.959,-2.121 -2.189,-2.14 -0.924,-0.014 -0.832,0.12 -0.834,-0.867 -0.003,-1.097 -0.007,-2.194 0.003,-3.292 0.003,-0.379 -0.112,-0.691 -0.362,-0.976 -2.342,-2.668 -4.678,-5.342 -7.019,-8.011 -0.12,-0.137 -0.275,-0.244 -0.414,-0.366 -6.214,0 -12.427,0 -18.641,0 -0.794,0.293 -1.14,0.868 -1.138,1.709 0.01,3.748 0.004,7.496 0.004,11.243 0,0.556 -0.003,0.589 -0.55,0.551 -1.497,-0.102 -2.516,0.986 -2.497,2.492 0.044,3.476 0.013,6.953 0.014,10.429 0.001,1.58 0.867,2.443 2.45,2.449 0.582,0.002 0.582,0.002 0.582,0.6 0,2.219 -0.001,4.438 0.001,6.657 0.001,1.192 0.58,1.771 1.768,1.771 8.013,10e-4 16.027,10e-4 24.04,0 1.168,0 1.755,-0.583 1.757,-1.745 0.002,-2.256 0,-4.512 10e-4,-6.768 0,-0.512 0.002,-0.511 0.52,-0.515 0.271,-0.002 0.541,0.008 0.809,-0.058 0.996,-0.246 1.69,-1.044 1.694,-2.069 0.016,-3.697 0.018,-7.396 10e-4,-11.094 z m -28.451,-14.137 c 5.337,0 10.674,0 16.01,0 0.548,0 0.554,0.007 0.554,0.561 10e-4,2.243 -0.001,4.486 10e-4,6.73 0.001,0.811 0.249,1.059 1.06,1.059 1.91,10e-4 3.821,0 5.731,10e-4 0.458,0 0.479,0.021 0.481,0.483 0.003,0.887 0.002,1.775 0,2.662 -0.001,0.477 -0.024,0.498 -0.504,0.499 -3.895,0.001 -7.79,0 -11.684,0 -3.882,0 -7.765,0 -11.647,0 -0.55,0 -0.552,-10e-4 -0.552,-0.561 -0.001,-3.624 -0.001,-7.247 0,-10.871 -0.001,-0.559 0.004,-0.563 0.55,-0.563 z m 23.285,34.417 c -3.883,10e-4 -7.766,0 -11.65,0 -3.871,0 -7.742,0 -11.613,0 -0.572,0 -0.574,-0.002 -0.574,-0.579 -0.001,-1.997 -0.001,-3.994 0.001,-5.991 0,-0.464 0.023,-0.486 0.478,-0.487 7.803,-10e-4 15.607,-10e-4 23.41,0 0.478,0 0.499,0.02 0.499,0.503 0.002,1.997 0.001,3.994 0,5.991 0.002,0.558 -0.003,0.563 -0.551,0.563 z"
   id="path57" />
			</g>
			<g
   id="g60">
				<path
   style="fill:#ffffff"
   d="m 236.361,440.845 c -0.338,0 -0.662,-0.048 -0.971,-0.143 -0.309,-0.095 -0.592,-0.239 -0.849,-0.43 -0.257,-0.191 -0.481,-0.425 -0.673,-0.7 -0.191,-0.276 -0.342,-0.597 -0.452,-0.965 l 1.401,-0.551 c 0.103,0.397 0.283,0.726 0.54,0.987 0.257,0.261 0.596,0.392 1.015,0.392 0.154,0 0.303,-0.02 0.447,-0.061 0.143,-0.04 0.272,-0.099 0.386,-0.176 0.114,-0.077 0.204,-0.175 0.27,-0.292 0.066,-0.118 0.099,-0.254 0.099,-0.408 0,-0.147 -0.026,-0.279 -0.077,-0.397 -0.051,-0.117 -0.138,-0.227 -0.259,-0.331 -0.121,-0.103 -0.28,-0.202 -0.475,-0.298 -0.195,-0.095 -0.435,-0.195 -0.722,-0.298 l -0.485,-0.176 c -0.213,-0.073 -0.429,-0.173 -0.645,-0.298 -0.217,-0.125 -0.413,-0.276 -0.59,-0.452 -0.177,-0.176 -0.322,-0.384 -0.436,-0.623 -0.114,-0.239 -0.171,-0.509 -0.171,-0.81 0,-0.309 0.06,-0.597 0.182,-0.866 0.121,-0.268 0.294,-0.503 0.518,-0.706 0.224,-0.202 0.492,-0.36 0.805,-0.474 0.313,-0.114 0.66,-0.171 1.042,-0.171 0.397,0 0.74,0.053 1.031,0.16 0.291,0.107 0.537,0.243 0.739,0.408 0.202,0.165 0.366,0.348 0.491,0.546 0.125,0.199 0.217,0.386 0.276,0.563 l -1.312,0.551 c -0.074,-0.221 -0.208,-0.419 -0.402,-0.596 -0.195,-0.176 -0.462,-0.265 -0.8,-0.265 -0.324,0 -0.592,0.075 -0.805,0.226 -0.213,0.151 -0.32,0.348 -0.32,0.59 0,0.235 0.103,0.436 0.309,0.601 0.206,0.165 0.533,0.325 0.982,0.48 l 0.497,0.165 c 0.316,0.111 0.605,0.237 0.866,0.381 0.261,0.143 0.485,0.314 0.673,0.513 0.187,0.199 0.331,0.425 0.43,0.678 0.1,0.254 0.149,0.546 0.149,0.877 0,0.412 -0.083,0.767 -0.248,1.064 -0.165,0.298 -0.377,0.542 -0.634,0.734 -0.258,0.191 -0.548,0.335 -0.872,0.43 -0.325,0.093 -0.641,0.141 -0.95,0.141 z"
   id="path58" />
				<path
   style="fill:#ffffff"
   d="m 239.516,432.771 h 1.61 l 1.633,4.754 0.287,1.015 h 0.088 l 0.309,-1.015 1.699,-4.754 h 1.61 l -2.879,7.897 h -1.566 z"
   id="path59" />
				<path
   style="fill:#ffffff"
   d="m 251.097,436.334 h 3.871 c 0.022,0.089 0.04,0.195 0.055,0.32 0.015,0.125 0.023,0.25 0.023,0.375 0,0.507 -0.078,0.985 -0.232,1.434 -0.154,0.449 -0.397,0.849 -0.728,1.202 -0.353,0.375 -0.775,0.666 -1.268,0.871 -0.493,0.206 -1.055,0.309 -1.688,0.309 -0.574,0 -1.114,-0.103 -1.621,-0.309 -0.507,-0.206 -0.949,-0.492 -1.324,-0.86 -0.375,-0.367 -0.673,-0.803 -0.894,-1.307 -0.22,-0.504 -0.331,-1.053 -0.331,-1.649 0,-0.595 0.11,-1.145 0.331,-1.649 0.221,-0.504 0.518,-0.939 0.894,-1.307 0.375,-0.367 0.816,-0.654 1.324,-0.86 0.507,-0.206 1.047,-0.309 1.621,-0.309 0.64,0 1.211,0.11 1.715,0.331 0.504,0.221 0.936,0.526 1.296,0.915 l -1.026,1.004 c -0.257,-0.272 -0.544,-0.48 -0.861,-0.623 -0.316,-0.143 -0.694,-0.215 -1.136,-0.215 -0.36,0 -0.702,0.065 -1.026,0.193 -0.323,0.129 -0.607,0.311 -0.849,0.546 -0.243,0.235 -0.436,0.52 -0.579,0.855 -0.143,0.335 -0.215,0.708 -0.215,1.119 0,0.412 0.072,0.785 0.215,1.12 0.143,0.335 0.338,0.62 0.585,0.855 0.246,0.235 0.531,0.418 0.854,0.546 0.324,0.129 0.669,0.193 1.037,0.193 0.419,0 0.774,-0.061 1.064,-0.182 0.29,-0.121 0.539,-0.278 0.745,-0.469 0.147,-0.132 0.274,-0.3 0.38,-0.502 0.107,-0.202 0.189,-0.428 0.248,-0.678 h -2.482 v -1.269 z"
   id="path60" />
			</g>
			<g
   id="g61">
				<path
   style="fill:#ffffff"
   d="m 297.3,431.299 c -0.006,-1.224 -0.959,-2.121 -2.189,-2.14 -0.924,-0.014 -0.832,0.12 -0.834,-0.867 -0.003,-1.097 -0.007,-2.194 0.003,-3.292 0.003,-0.379 -0.112,-0.691 -0.362,-0.976 -2.342,-2.668 -4.678,-5.342 -7.019,-8.011 -0.12,-0.137 -0.275,-0.244 -0.414,-0.366 -6.214,0 -12.427,0 -18.641,0 -0.794,0.293 -1.14,0.868 -1.138,1.709 0.01,3.748 0.004,7.496 0.004,11.243 0,0.556 -0.003,0.589 -0.55,0.551 -1.497,-0.102 -2.516,0.986 -2.497,2.492 0.044,3.476 0.013,6.953 0.014,10.429 10e-4,1.58 0.867,2.443 2.45,2.449 0.582,0.002 0.582,0.002 0.582,0.6 0,2.219 -10e-4,4.438 10e-4,6.657 0.001,1.192 0.58,1.771 1.768,1.771 8.013,10e-4 16.027,10e-4 24.04,0 1.168,0 1.755,-0.583 1.757,-1.745 0.002,-2.256 0,-4.512 0.001,-6.768 0,-0.512 0.002,-0.511 0.52,-0.515 0.271,-0.002 0.541,0.008 0.809,-0.058 0.996,-0.246 1.69,-1.044 1.694,-2.069 0.016,-3.697 0.019,-7.396 0.001,-11.094 z m -28.45,-14.137 c 5.337,0 10.674,0 16.01,0 0.548,0 0.554,0.007 0.554,0.561 0.001,2.243 -10e-4,4.486 0.001,6.73 10e-4,0.811 0.249,1.059 1.06,1.059 1.91,10e-4 3.821,0 5.731,10e-4 0.458,0 0.479,0.021 0.481,0.483 0.003,0.887 0.002,1.775 0,2.662 -0.001,0.477 -0.024,0.498 -0.504,0.499 -3.895,0.001 -7.79,0 -11.684,0 -3.882,0 -7.765,0 -11.647,0 -0.55,0 -0.552,-10e-4 -0.552,-0.561 -0.001,-3.624 -0.001,-7.247 0,-10.871 -0.001,-0.559 0.003,-0.563 0.55,-0.563 z m 23.285,34.417 c -3.883,10e-4 -7.766,0 -11.65,0 -3.871,0 -7.742,0 -11.613,0 -0.572,0 -0.574,-0.002 -0.574,-0.579 -10e-4,-1.997 -10e-4,-3.994 10e-4,-5.991 0,-0.464 0.023,-0.486 0.478,-0.487 7.803,-10e-4 15.607,-10e-4 23.41,0 0.478,0 0.499,0.02 0.499,0.503 0.001,1.997 0.001,3.994 0,5.991 0.001,0.558 -0.004,0.563 -0.551,0.563 z"
   id="path61" />
			</g>
			<g
   id="g64">
				<path
   style="fill:#ffffff"
   d="m 272.966,434.183 v 1.831 h 3.165 v 1.412 h -3.165 v 1.831 h 3.518 v 1.412 h -5.007 v -7.897 h 5.007 v 1.412 h -3.518 z"
   id="path62" />
				<path
   style="fill:#ffffff"
   d="m 277.852,440.669 v -7.897 h 2.779 c 0.375,0 0.726,0.061 1.053,0.182 0.327,0.121 0.612,0.292 0.855,0.513 0.243,0.221 0.434,0.483 0.574,0.789 0.14,0.305 0.209,0.642 0.209,1.009 0,0.375 -0.07,0.715 -0.209,1.02 -0.14,0.305 -0.331,0.568 -0.574,0.789 -0.243,0.221 -0.528,0.392 -0.855,0.513 -0.327,0.121 -0.678,0.182 -1.053,0.182 h -1.29 v 2.901 h -1.489 z m 2.801,-4.313 c 0.389,0 0.684,-0.111 0.882,-0.331 0.199,-0.22 0.298,-0.474 0.298,-0.761 0,-0.14 -0.024,-0.276 -0.072,-0.408 -0.048,-0.132 -0.121,-0.248 -0.221,-0.347 -0.099,-0.099 -0.222,-0.178 -0.37,-0.237 -0.147,-0.059 -0.32,-0.089 -0.518,-0.089 h -1.312 v 2.173 z"
   id="path63" />
				<path
   style="fill:#ffffff"
   d="m 286.797,440.845 c -0.338,0 -0.662,-0.048 -0.971,-0.143 -0.309,-0.095 -0.592,-0.239 -0.849,-0.43 -0.257,-0.191 -0.482,-0.425 -0.673,-0.7 -0.191,-0.276 -0.342,-0.597 -0.452,-0.965 l 1.401,-0.551 c 0.103,0.397 0.283,0.726 0.541,0.987 0.257,0.261 0.595,0.392 1.015,0.392 0.154,0 0.303,-0.02 0.447,-0.061 0.143,-0.04 0.272,-0.099 0.386,-0.176 0.114,-0.077 0.204,-0.175 0.27,-0.292 0.066,-0.118 0.1,-0.254 0.1,-0.408 0,-0.147 -0.026,-0.279 -0.077,-0.397 -0.051,-0.117 -0.138,-0.227 -0.259,-0.331 -0.121,-0.103 -0.279,-0.202 -0.474,-0.298 -0.195,-0.095 -0.436,-0.195 -0.723,-0.298 l -0.485,-0.176 c -0.213,-0.073 -0.428,-0.173 -0.645,-0.298 -0.217,-0.125 -0.414,-0.276 -0.59,-0.452 -0.176,-0.176 -0.322,-0.384 -0.436,-0.623 -0.114,-0.239 -0.171,-0.509 -0.171,-0.81 0,-0.309 0.061,-0.597 0.182,-0.866 0.121,-0.268 0.294,-0.503 0.518,-0.706 0.224,-0.202 0.493,-0.36 0.805,-0.474 0.312,-0.114 0.66,-0.171 1.042,-0.171 0.397,0 0.741,0.053 1.031,0.16 0.29,0.107 0.537,0.243 0.739,0.408 0.202,0.165 0.365,0.348 0.491,0.546 0.125,0.199 0.217,0.386 0.276,0.563 l -1.312,0.551 c -0.074,-0.221 -0.208,-0.419 -0.403,-0.596 -0.195,-0.176 -0.462,-0.265 -0.799,-0.265 -0.324,0 -0.592,0.075 -0.805,0.226 -0.213,0.151 -0.32,0.348 -0.32,0.59 0,0.235 0.103,0.436 0.309,0.601 0.206,0.165 0.533,0.325 0.982,0.48 l 0.496,0.165 c 0.316,0.111 0.605,0.237 0.866,0.381 0.261,0.143 0.485,0.314 0.673,0.513 0.187,0.199 0.331,0.425 0.43,0.678 0.099,0.254 0.149,0.546 0.149,0.877 0,0.412 -0.083,0.767 -0.248,1.064 -0.165,0.298 -0.377,0.542 -0.634,0.734 -0.258,0.191 -0.548,0.335 -0.872,0.43 -0.326,0.093 -0.643,0.141 -0.951,0.141 z"
   id="path64" />
			</g>
			<g
   id="g67">
				<path
   style="fill:#ffffff"
   d="m 321.394,439.168 4.004,-4.985 h -3.827 v -1.412 h 5.559 v 1.5 l -3.96,4.985 h 4.004 v 1.412 h -5.779 v -1.5 z"
   id="path65" />
				<path
   style="fill:#ffffff"
   d="m 328.409,432.771 h 1.489 v 7.897 h -1.489 z"
   id="path66" />
				<path
   style="fill:#ffffff"
   d="m 331.486,440.669 v -7.897 h 2.779 c 0.375,0 0.726,0.061 1.053,0.182 0.327,0.121 0.612,0.292 0.855,0.513 0.243,0.221 0.434,0.483 0.574,0.789 0.14,0.305 0.209,0.642 0.209,1.009 0,0.375 -0.07,0.715 -0.209,1.02 -0.14,0.305 -0.331,0.568 -0.574,0.789 -0.243,0.221 -0.528,0.392 -0.855,0.513 -0.327,0.121 -0.678,0.182 -1.053,0.182 h -1.29 v 2.901 h -1.489 z m 2.802,-4.313 c 0.389,0 0.684,-0.111 0.882,-0.331 0.199,-0.22 0.298,-0.474 0.298,-0.761 0,-0.14 -0.024,-0.276 -0.072,-0.408 -0.048,-0.132 -0.121,-0.248 -0.221,-0.347 -0.099,-0.099 -0.222,-0.178 -0.37,-0.237 -0.147,-0.059 -0.32,-0.089 -0.518,-0.089 h -1.312 v 2.173 z"
   id="path67" />
			</g>
		</g>
		<g
   style="opacity:0.61"
   id="g69">
			<path
   style="fill:#ffffff"
   d="m 300.133,433.27 h 9.067 v 2.242 h -9.067 z m 0,3.866 h 9.067 v 2.243 h -9.067 z"
   id="path68" />
		</g>
	</g>
	<g
   style="opacity:0.61"
   id="g91">
		<path
   style="fill:#ffffff"
   d="m 156.756,478.878 h 1.607 c 1.263,0 2.114,0.812 2.114,1.974 0,1.161 -0.851,1.973 -2.114,1.973 h -1.607 z m 1.584,3.586 c 1.049,0 1.725,-0.665 1.725,-1.612 0,-0.947 -0.677,-1.613 -1.725,-1.613 h -1.167 v 3.225 z"
   id="path70" />
		<path
   style="fill:#ffffff"
   d="m 165.139,480.851 c 0,-1.15 0.879,-2.007 2.075,-2.007 1.184,0 2.069,0.851 2.069,2.007 0,1.156 -0.885,2.007 -2.069,2.007 -1.195,0 -2.075,-0.856 -2.075,-2.007 z m 3.727,0 c 0,-0.942 -0.705,-1.635 -1.652,-1.635 -0.953,0 -1.663,0.693 -1.663,1.635 0,0.941 0.71,1.635 1.663,1.635 0.948,0 1.652,-0.693 1.652,-1.635 z"
   id="path71" />
		<path
   style="fill:#ffffff"
   d="m 179.596,478.878 -1.331,3.947 h -0.44 l -1.156,-3.366 -1.161,3.366 h -0.434 l -1.331,-3.947 h 0.429 l 1.139,3.394 1.178,-3.394 h 0.389 l 1.161,3.411 1.156,-3.411 z"
   id="path72" />
		<path
   style="fill:#ffffff"
   d="m 187.731,478.878 v 3.947 h -0.344 l -2.537,-3.202 v 3.202 h -0.417 v -3.947 h 0.344 l 2.543,3.203 v -3.203 z"
   id="path73" />
		<path
   style="fill:#ffffff"
   d="m 193.093,478.878 h 0.417 v 3.586 h 2.21 v 0.361 h -2.627 z"
   id="path74" />
		<path
   style="fill:#ffffff"
   d="m 200.061,480.851 c 0,-1.15 0.879,-2.007 2.075,-2.007 1.184,0 2.069,0.851 2.069,2.007 0,1.156 -0.885,2.007 -2.069,2.007 -1.195,0 -2.075,-0.856 -2.075,-2.007 z m 3.727,0 c 0,-0.942 -0.705,-1.635 -1.652,-1.635 -0.953,0 -1.663,0.693 -1.663,1.635 0,0.941 0.71,1.635 1.663,1.635 0.947,0 1.652,-0.693 1.652,-1.635 z"
   id="path75" />
		<path
   style="fill:#ffffff"
   d="m 211.636,481.77 h -2.199 l -0.474,1.054 h -0.434 l 1.804,-3.947 h 0.412 l 1.804,3.947 h -0.44 z m -0.152,-0.338 -0.947,-2.12 -0.947,2.12 z"
   id="path76" />
		<path
   style="fill:#ffffff"
   d="m 217.28,478.878 h 1.607 c 1.263,0 2.114,0.812 2.114,1.974 0,1.161 -0.851,1.973 -2.114,1.973 h -1.607 z m 1.584,3.586 c 1.049,0 1.725,-0.665 1.725,-1.612 0,-0.947 -0.677,-1.613 -1.725,-1.613 h -1.167 v 3.225 z"
   id="path77" />
		<path
   style="fill:#ffffff"
   d="m 234.041,481.77 h -2.199 l -0.474,1.054 h -0.434 l 1.804,-3.947 h 0.412 l 1.804,3.947 h -0.44 z m -0.152,-0.338 -0.947,-2.12 -0.947,2.12 z"
   id="path78" />
		<path
   style="fill:#ffffff"
   d="m 239.685,478.878 h 0.417 v 3.586 h 2.21 v 0.361 h -2.627 z"
   id="path79" />
		<path
   style="fill:#ffffff"
   d="m 247.082,478.878 h 0.417 v 3.586 h 2.21 v 0.361 h -2.627 z"
   id="path80" />
		<path
   style="fill:#ffffff"
   d="m 260.449,479.239 v 1.551 h 2.041 v 0.361 h -2.041 v 1.675 h -0.417 v -3.947 h 2.706 v 0.361 h -2.289 z"
   id="path81" />
		<path
   style="fill:#ffffff"
   d="m 267.678,478.878 h 0.417 v 3.947 h -0.417 z"
   id="path82" />
		<path
   style="fill:#ffffff"
   d="m 273.456,478.878 h 0.417 v 3.586 h 2.21 v 0.361 h -2.627 z"
   id="path83" />
		<path
   style="fill:#ffffff"
   d="m 283.644,482.464 v 0.361 h -2.791 v -3.947 h 2.706 v 0.361 h -2.289 v 1.404 h 2.041 v 0.355 h -2.041 v 1.466 z"
   id="path84" />
		<path
   style="fill:#ffffff"
   d="m 294.672,479.239 v 1.551 h 2.041 v 0.361 h -2.041 v 1.675 h -0.417 v -3.947 h 2.706 v 0.361 h -2.289 z"
   id="path85" />
		<path
   style="fill:#ffffff"
   d="m 301.5,480.851 c 0,-1.15 0.879,-2.007 2.075,-2.007 1.184,0 2.069,0.851 2.069,2.007 0,1.156 -0.885,2.007 -2.069,2.007 -1.196,0 -2.075,-0.856 -2.075,-2.007 z m 3.726,0 c 0,-0.942 -0.705,-1.635 -1.652,-1.635 -0.953,0 -1.663,0.693 -1.663,1.635 0,0.941 0.71,1.635 1.663,1.635 0.948,0 1.652,-0.693 1.652,-1.635 z"
   id="path86" />
		<path
   style="fill:#ffffff"
   d="m 313.351,482.825 -0.902,-1.269 c -0.102,0.011 -0.203,0.017 -0.316,0.017 h -1.06 v 1.252 h -0.417 v -3.947 h 1.477 c 1.004,0 1.613,0.507 1.613,1.353 0,0.62 -0.327,1.054 -0.902,1.24 l 0.964,1.353 h -0.457 z m -0.023,-2.594 c 0,-0.632 -0.417,-0.992 -1.207,-0.992 h -1.048 v 1.979 h 1.048 c 0.79,0 1.207,-0.367 1.207,-0.987 z"
   id="path87" />
		<path
   style="fill:#ffffff"
   d="m 322.907,478.878 v 3.947 h -0.4 v -3.158 l -1.551,2.656 h -0.197 l -1.551,-2.639 v 3.14 h -0.4 v -3.947 h 0.344 l 1.714,2.926 1.697,-2.926 h 0.344 z"
   id="path88" />
		<path
   style="fill:#ffffff"
   d="m 330.744,481.77 h -2.199 l -0.473,1.054 h -0.434 l 1.804,-3.947 h 0.411 l 1.804,3.947 h -0.44 z m -0.152,-0.338 -0.947,-2.12 -0.947,2.12 z"
   id="path89" />
		<path
   style="fill:#ffffff"
   d="m 336.957,479.239 h -1.387 v -0.361 h 3.192 v 0.361 h -1.387 v 3.586 h -0.417 v -3.586 z"
   id="path90" />
		<path
   style="fill:#ffffff"
   d="m 343.063,482.346 0.164,-0.321 c 0.282,0.276 0.784,0.479 1.302,0.479 0.739,0 1.06,-0.31 1.06,-0.699 0,-1.083 -2.43,-0.417 -2.43,-1.877 0,-0.581 0.451,-1.083 1.455,-1.083 0.446,0 0.908,0.13 1.224,0.35 l -0.141,0.333 c -0.338,-0.22 -0.733,-0.327 -1.083,-0.327 -0.722,0 -1.043,0.321 -1.043,0.716 0,1.083 2.43,0.429 2.43,1.866 0,0.581 -0.462,1.077 -1.472,1.077 -0.592,-0.002 -1.173,-0.21 -1.466,-0.514 z"
   id="path91" />
	</g>
</g>
<g
   id="g92"
   transform="translate(-25,-117.605)">
</g>
<g
   id="g149"
   transform="translate(-25,-117.605)">
	<g
   id="g100">
		<path
   style="clip-rule:evenodd;fill:#ff4000;fill-rule:evenodd"
   d="m 105.891,212.421 c 0,10.271 -8.326,18.586 -18.588,18.586 -10.258,0 -18.58,-8.315 -18.58,-18.586 0,-10.268 8.321,-18.577 18.58,-18.577 10.262,-0.001 18.588,8.309 18.588,18.577 z"
   id="path92" />
		<g
   id="g98">
			<g
   id="g97">
				<linearGradient
   id="SVGID_1_"
   gradientUnits="userSpaceOnUse"
   x1="57.965599"
   y1="107.6128"
   x2="138.40759"
   y2="241.4908">
					<stop
   offset="0"
   style="stop-color:#AFDEDD"
   id="stop92" />
					<stop
   offset="0.7978"
   style="stop-color:#4089BA"
   id="stop93" />
				</linearGradient>
				<path
   style="clip-rule:evenodd;fill:url(#SVGID_1_);fill-rule:evenodd"
   d="m 85.593,131.11 c 0,7.464 -6.048,13.509 -13.509,13.509 -7.455,0 -13.509,-6.045 -13.509,-13.509 0,-7.459 6.054,-13.505 13.509,-13.505 7.461,-0.001 13.509,6.046 13.509,13.505 z"
   id="path93" />
				
					<linearGradient
   id="SVGID_00000052066828005936870050000012731186364469606279_"
   gradientUnits="userSpaceOnUse"
   x1="95.733704"
   y1="118.3514"
   x2="176.17349"
   y2="252.2256">
					<stop
   offset="0"
   style="stop-color:#AFDEDD"
   id="stop94" />
					<stop
   offset="0.7978"
   style="stop-color:#4089BA"
   id="stop95" />
				</linearGradient>
				<path
   style="clip-rule:evenodd;fill:url(#SVGID_00000052066828005936870050000012731186364469606279_);fill-rule:evenodd"
   d="m 116.909,131.11 c 0,7.464 -6.048,13.509 -13.503,13.509 -7.457,0 -13.516,-6.045 -13.516,-13.509 0,-7.459 6.059,-13.505 13.516,-13.505 7.455,-0.001 13.503,6.046 13.503,13.505 z"
   id="path95" />
				
					<linearGradient
   id="SVGID_00000038399029154868998830000004402607266574830465_"
   gradientUnits="userSpaceOnUse"
   x1="37.5718"
   y1="130.00661"
   x2="118.0212"
   y2="263.89691">
					<stop
   offset="0"
   style="stop-color:#AFDEDD"
   id="stop96" />
					<stop
   offset="0.7978"
   style="stop-color:#4089BA"
   id="stop97" />
				</linearGradient>
				<path
   style="clip-rule:evenodd;fill:url(#SVGID_00000038399029154868998830000004402607266574830465_);fill-rule:evenodd"
   d="m 86.82,150.141 c -34.132,0 -61.82,27.678 -61.82,61.83 0,34.143 27.688,61.789 61.82,61.789 34.136,0 61.811,-27.646 61.811,-61.789 -0.001,-34.151 -27.676,-61.83 -61.811,-61.83 z m 39.189,74.044 c -5.209,16.684 -20.78,28.828 -39.189,28.828 -18.418,0 -33.99,-12.147 -39.192,-28.847 -1.2,-3.862 -16.771,-7.981 -16.771,-12.239 0,-4.351 15.611,-8.532 16.867,-12.476 5.289,-16.546 20.793,-28.536 39.096,-28.536 18.291,0 33.787,11.972 39.091,28.503 1.263,3.957 17.091,8.158 17.091,12.553 0,4.242 -15.797,8.345 -16.993,12.214 z"
   id="path97" />
			</g>
		</g>
		
			<linearGradient
   id="SVGID_00000053515833925949069580000018228676667906531459_"
   gradientUnits="userSpaceOnUse"
   x1="98.243401"
   y1="195.97771"
   x2="474.2099"
   y2="248.8163">
			<stop
   offset="0.102"
   style="stop-color:#4389B6"
   id="stop98" />
			<stop
   offset="0.2459"
   style="stop-color:#204470"
   id="stop99" />
			<stop
   offset="1"
   style="stop-color:#204470"
   id="stop100" />
		</linearGradient>
		<path
   style="clip-rule:evenodd;fill:url(#SVGID_00000053515833925949069580000018228676667906531459_);fill-rule:evenodd"
   d="m 455.72,151.024 c -19.369,0 -19.022,18.486 -19.066,18.619 l 0.086,23.768 c 0,0 0.137,44.104 0.137,46.418 0,2.318 -1.467,5.811 -8.496,6.212 l -11.702,0.184 0.027,-76.927 c 0,0 0.077,-18.709 -19.274,-18.709 -19.365,0 -19.026,18.502 -19.059,18.617 0,0 0.078,68.64 0.078,70.808 0,2.624 -2.298,6.026 -7.266,6.026 h -24.514 l 0.004,-76.301 c 0,0 0.117,-18.699 -19.26,-18.699 -19.367,0 -19.028,18.486 -19.068,18.616 0,0 0.093,68.868 0.093,70.173 0,1.274 -2.099,5.811 -7.873,5.811 h -21.986 v -57.445 c 0,0 0.77,-37.209 -47.792,-37.209 -48.548,0 -47.887,37.196 -47.914,37.193 v 57.646 h -51.99 c -9.477,14.96 -25.244,25.516 -43.58,27.983 h 95.57 c 0,0 -0.717,35.404 48.061,35.404 48.829,0 47.604,-35.342 47.604,-35.342 l 156.678,-0.062 c 0,0 39.782,-2.303 39.782,-32.951 v -71.131 c 0,0 0.093,-18.702 -19.28,-18.702 z M 240.877,271.116 c 0,5.641 -4.535,10.213 -10.178,10.213 -5.645,0 -10.186,-4.572 -10.186,-10.213 v -81.607 c 0,-5.623 4.541,-10.182 10.186,-10.182 5.643,0 10.178,4.559 10.178,10.182 z"
   id="path100" />
	</g>
	<g
   id="g143">
		<path
   style="fill:#204470"
   d="m 44.486,347.397 c -1.867,0 -3.346,-0.599 -4.473,-1.796 -1.232,0.67 -2.747,0.986 -4.542,1.02 -3.769,0 -6.057,-2.675 -6.057,-6.902 0,-2.289 0.739,-4.121 2.254,-5.493 1.514,-1.409 3.521,-2.113 5.987,-2.113 h 1.127 l -0.212,-1.584 c 1.515,-0.387 2.923,-0.704 4.226,-0.951 v 11.797 c 0,1.904 0.846,2.853 2.572,2.853 h 2.218 v 3.17 h -3.1 z M 36.703,326.02 c 0,1.091 -0.881,2.113 -2.113,2.113 -1.233,0 -2.148,-0.953 -2.148,-2.185 0,-1.126 0.915,-2.148 2.148,-2.148 1.162,10e-4 2.113,0.917 2.113,2.22 z m 2.641,8.381 c -0.669,0.036 -1.303,0.071 -1.902,0.071 -1.197,0.035 -2.254,0.458 -3.134,1.338 -0.881,0.882 -1.303,1.973 -1.303,3.276 0.036,3.064 1.127,4.614 3.275,4.614 1.057,0 2.078,-0.141 3.064,-0.422 z m 2.994,-8.381 c 0,1.091 -0.881,2.113 -2.113,2.113 -1.232,0 -2.184,-0.953 -2.184,-2.185 0,-1.126 0.951,-2.148 2.184,-2.148 1.126,10e-4 2.113,0.917 2.113,2.22 z"
   id="path101" />
		<path
   style="fill:#204470"
   d="m 50.749,353.067 c 0,1.091 -0.951,2.113 -2.184,2.113 -1.127,0 -2.148,-0.882 -2.148,-2.15 0,-1.161 1.021,-2.113 2.148,-2.113 1.163,0 2.184,0.917 2.184,2.15 z m 9.508,-5.67 h -2.641 c -1.409,0 -2.572,-0.352 -3.452,-1.057 -0.915,0.704 -2.042,1.057 -3.381,1.057 h -4.19 v -3.17 h 3.275 c 1.725,0 2.571,-0.916 2.571,-2.781 v -3.628 l -0.705,-4.543 4.191,-0.916 v 9.087 c 0,1.865 0.845,2.781 2.571,2.781 h 1.761 z m -3.909,5.67 c 0,1.091 -0.915,2.113 -2.148,2.113 -1.162,0 -2.113,-0.882 -2.113,-2.15 0,-1.161 0.951,-2.113 2.113,-2.113 1.162,0 2.148,0.917 2.148,2.15 z"
   id="path102" />
		<path
   style="fill:#204470"
   d="m 69.867,342.291 c 0,3.133 -2.007,5.106 -5.211,5.106 h -5.388 v -3.17 h 4.542 c 1.726,0 2.572,-0.916 2.572,-2.781 v -3.486 l -0.599,-4.508 4.084,-0.916 z M 67.93,326.865 c 0,1.162 -0.881,2.111 -2.113,2.111 -1.233,0 -2.148,-0.88 -2.148,-2.111 0,-1.232 0.915,-2.148 2.148,-2.148 1.163,0 2.113,0.916 2.113,2.148 z"
   id="path103" />
		<path
   style="fill:#204470"
   d="m 82.33,347.397 h -2.747 c -3.205,0 -5.212,-1.973 -5.212,-5.247 v -11.974 l -0.599,-4.508 4.12,-0.951 v 16.623 c 0,1.938 0.845,2.887 2.536,2.887 h 1.902 z"
   id="path104" />
		<path
   style="fill:#204470"
   d="m 104.267,347.397 h -2.536 c -1.302,0 -2.43,-0.352 -3.345,-1.091 -1.726,2.042 -3.803,3.064 -6.233,3.064 -1.972,0 -3.487,-0.881 -4.508,-2.606 -0.775,0.422 -1.655,0.633 -2.642,0.633 h -3.662 v -3.17 h 2.711 c 1.585,0 2.395,-0.774 2.43,-2.325 0.176,-5.035 3.452,-8.1 8.805,-8.1 1.726,0 3.415,0.283 5.106,0.81 l -0.423,3.663 v 3.17 c 0,1.865 0.845,2.781 2.571,2.781 h 1.726 z m -7.783,-2.5 v -6.444 l -0.282,-1.973 c -0.528,-0.177 -1.091,-0.247 -1.69,-0.247 -2.924,0 -4.402,1.832 -4.402,5.53 0,2.957 1.267,4.72 2.957,4.72 1.269,0 2.396,-0.53 3.417,-1.586 z"
   id="path105" />
		<path
   style="fill:#204470"
   d="m 116.974,347.397 h -2.641 c -1.409,0 -2.572,-0.352 -3.452,-1.057 -0.951,0.704 -2.078,1.057 -3.381,1.057 h -4.19 v -3.17 h 3.239 c 1.725,0 2.606,-0.916 2.606,-2.781 v -3.416 l -0.739,-4.577 4.19,-0.953 v 8.946 c 0,1.865 0.846,2.781 2.536,2.781 h 1.831 v 3.17 z m -9.192,-20.532 c 0,1.162 -0.915,2.111 -2.148,2.111 -1.163,0 -2.113,-0.88 -2.113,-2.146 0,-1.163 0.951,-2.113 2.113,-2.113 1.233,0 2.148,0.916 2.148,2.148 z m 5.635,0 c 0,1.162 -0.915,2.111 -2.148,2.111 -1.163,0 -2.113,-0.88 -2.113,-2.146 0,-1.163 0.951,-2.113 2.113,-2.113 1.233,0 2.148,0.916 2.148,2.148 z"
   id="path106" />
		<path
   style="fill:#204470"
   d="m 126.584,342.291 c 0,3.133 -2.007,5.106 -5.211,5.106 h -5.388 v -3.17 h 4.543 c 1.725,0 2.571,-0.916 2.571,-2.781 v -3.486 l -0.599,-4.508 4.085,-0.916 v 9.755 z m 1.127,-12.044 h -10.459 v -2.184 h 1.62 c 0,-2.993 1.621,-5.035 4.438,-5.035 1.163,0 2.254,0.387 3.346,1.161 -0.176,0.458 -0.423,1.059 -0.67,1.761 -0.599,-0.527 -1.268,-0.808 -1.972,-0.808 -1.585,0.069 -2.395,1.055 -2.36,2.922 h 2.184 l 2.008,-0.177 z"
   id="path107" />
		<path
   style="fill:#204470"
   d="m 145.704,342.15 c 0,1.478 -0.458,2.712 -1.339,3.661 -0.915,1.059 -2.183,1.586 -3.803,1.586 H 130.56 l 1.514,-3.17 h 7.36 l -6.55,-11.164 -3.417,-4.086 h 4.649 l 8.1,13.984 v -12.575 l -0.845,-4.718 4.332,-0.951 v 17.433 z"
   id="path108" />
		<path
   style="fill:#204470"
   d="m 154.009,324.646 -0.388,4.685 v 18.066 h -3.487 v -18.032 l -0.527,-4.367 z"
   id="path109" />
		<path
   style="fill:#204470"
   d="m 190.665,342.256 c 0,3.205 -1.972,5.141 -5.177,5.141 h -15.813 c -2.008,0 -3.627,-0.705 -4.825,-2.079 -1.197,-1.409 -1.796,-3.239 -1.796,-5.528 0,-1.761 0.457,-3.417 1.373,-5.003 h 3.134 c -1.092,1.551 -1.655,2.995 -1.655,4.298 0,3.415 1.409,5.141 4.19,5.141 h 14.51 c 1.726,0 2.606,-0.916 2.606,-2.781 v -3.486 l -0.669,-4.508 4.12,-0.953 v 9.758 z m -14.368,-9.614 c 0,1.161 -0.951,2.113 -2.113,2.113 -1.233,0 -2.148,-0.881 -2.148,-2.15 0,-1.161 0.915,-2.113 2.148,-2.113 1.162,0 2.113,0.916 2.113,2.15 z m 5.635,0 c 0,1.161 -0.951,2.113 -2.113,2.113 -1.232,0 -2.148,-0.881 -2.148,-2.15 0,-1.161 0.916,-2.113 2.148,-2.113 1.162,0 2.113,0.916 2.113,2.15 z"
   id="path110" />
		<path
   style="fill:#204470"
   d="m 203.123,347.397 h -2.747 c -3.206,0 -5.212,-1.973 -5.212,-5.247 v -11.974 l -0.599,-4.508 4.12,-0.951 v 16.623 c 0,1.938 0.845,2.887 2.536,2.887 h 1.902 z"
   id="path111" />
		<path
   style="fill:#204470"
   d="m 220.165,332.642 -0.318,3.661 v 4.897 c 0,4.119 -2.641,6.198 -7.889,6.198 h -9.825 v -3.17 h 5.353 c -0.704,-1.197 -1.057,-2.464 -1.057,-3.767 0,-2.606 0.775,-4.685 2.324,-6.271 1.549,-1.584 3.663,-2.358 6.375,-2.358 1.691,-10e-4 3.382,0.28 5.037,0.81 z m -3.698,3.909 -0.281,-2.044 c -0.528,-0.175 -1.163,-0.244 -1.831,-0.244 -2.958,0 -4.438,1.829 -4.438,5.528 0,2.958 1.021,4.437 3.029,4.437 2.5,0 3.768,-1.584 3.768,-4.72 -0.001,-0.811 -0.071,-1.796 -0.247,-2.957 z"
   id="path112" />
		<path
   style="fill:#204470"
   d="m 241.007,347.397 h -4.156 c -0.599,4.05 -3.099,6.656 -7.431,7.784 l -0.74,-1.374 c 3.029,-1.163 4.614,-3.311 4.79,-6.41 h -3.345 c -1.902,0 -3.451,-0.564 -4.614,-1.725 -1.303,-1.234 -1.972,-2.889 -1.972,-5.001 0,-2.573 0.739,-4.614 2.254,-6.199 1.514,-1.586 3.521,-2.395 5.987,-2.395 h 5.141 v 12.149 h 4.085 v 3.171 z m -7.642,-3.17 V 334.12 h -1.796 c -2.782,0 -4.438,2.254 -4.438,5.917 0,2.781 1.092,4.19 3.275,4.19 z"
   id="path113" />
		<path
   style="fill:#204470"
   d="m 253.539,347.397 h -2.36 c -1.408,0 -2.571,-0.352 -3.486,-1.091 -0.881,0.739 -2.008,1.091 -3.346,1.091 h -4.296 v -3.17 h 3.381 c 1.69,0 2.535,-0.949 2.535,-2.887 v -10.954 l -0.669,-4.718 4.191,-0.951 v 16.623 c 0,1.938 0.845,2.887 2.536,2.887 h 1.514 z"
   id="path114" />
		<path
   style="fill:#204470"
   d="m 277.237,347.397 h -8.382 c -1.057,0 -2.289,-0.316 -3.663,-0.914 -0.246,0.139 -1.055,0.175 -2.429,0.139 -1.022,0 -1.515,0.248 -1.549,0.776 h -8.698 v -3.17 h 8.169 c 0.458,0 0.882,-0.035 1.34,-0.141 -0.81,-0.705 -2.747,-2.535 -5.847,-5.493 0,-1.655 0.882,-3.17 2.643,-4.508 1.796,-1.338 3.944,-2.008 6.444,-2.008 2.466,0 4.614,0.67 6.444,2.042 1.726,1.303 2.572,2.818 2.572,4.473 -0.352,0.316 -2.325,2.148 -5.917,5.493 0.458,0.106 0.951,0.141 1.409,0.141 h 7.466 v 3.17 z m -6.762,-9.437 c -0.106,-0.705 -0.564,-1.34 -1.374,-1.869 -1.02,-0.631 -2.323,-0.949 -3.838,-0.949 -1.515,0 -2.781,0.318 -3.803,0.949 -0.845,0.6 -1.338,1.199 -1.444,1.869 1.163,1.126 2.887,2.781 5.247,4.964 z"
   id="path115" />
		<path
   style="fill:#204470"
   d="m 298.114,347.397 h -2.535 c -1.303,0 -2.431,-0.352 -3.345,-1.091 -1.727,2.042 -3.805,3.064 -6.234,3.064 -1.973,0 -3.486,-0.881 -4.508,-2.606 -0.776,0.422 -1.655,0.633 -2.641,0.633 h -3.663 v -3.17 h 2.712 c 1.584,0 2.394,-0.774 2.429,-2.325 0.177,-5.035 3.451,-8.1 8.804,-8.1 1.726,0 3.416,0.283 5.106,0.81 l -0.422,3.663 v 3.17 c 0,1.865 0.845,2.781 2.572,2.781 h 1.725 z m -7.784,-2.5 v -6.444 l -0.281,-1.973 c -0.527,-0.177 -1.091,-0.247 -1.69,-0.247 -2.924,0 -4.402,1.832 -4.402,5.53 0,2.957 1.267,4.72 2.958,4.72 1.267,0 2.395,-0.53 3.415,-1.586 z"
   id="path116" />
		<path
   style="fill:#204470"
   d="m 310.644,347.397 h -2.36 c -1.409,0 -2.571,-0.352 -3.488,-1.091 -0.88,0.739 -2.008,1.091 -3.345,1.091 h -4.296 v -3.17 h 3.38 c 1.692,0 2.537,-0.949 2.537,-2.887 v -10.954 l -0.67,-4.718 4.19,-0.951 v 16.623 c 0,1.938 0.847,2.887 2.537,2.887 h 1.515 z"
   id="path117" />
		<path
   style="fill:#204470"
   d="m 321.489,342.15 c 0,3.274 -2.008,5.247 -5.249,5.247 h -6.585 v -3.17 h 5.74 c 1.727,0 2.572,-0.949 2.572,-2.887 v -11.198 l -0.599,-4.65 4.121,-0.985 z"
   id="path118" />
		<path
   style="fill:#204470"
   d="m 345.605,347.397 c -1.865,0 -3.345,-0.599 -4.471,-1.796 -1.234,0.67 -2.747,0.986 -4.544,1.02 -3.767,0 -6.057,-2.675 -6.057,-6.902 0,-2.289 0.741,-4.121 2.254,-5.493 1.515,-1.409 3.522,-2.113 5.988,-2.113 h 1.126 l -0.21,-1.584 c 1.513,-0.387 2.922,-0.704 4.225,-0.951 v 11.797 c 0,1.904 0.845,2.853 2.571,2.853 h 2.219 v 3.17 h -3.101 z m -7.782,-21.377 c 0,1.091 -0.882,2.113 -2.113,2.113 -1.232,0 -2.148,-0.953 -2.148,-2.185 0,-1.126 0.916,-2.148 2.148,-2.148 1.162,10e-4 2.113,0.917 2.113,2.22 z m 2.641,8.381 c -0.67,0.036 -1.303,0.071 -1.902,0.071 -1.197,0.035 -2.254,0.458 -3.133,1.338 -0.882,0.882 -1.303,1.973 -1.303,3.276 0.035,3.064 1.126,4.614 3.274,4.614 1.057,0 2.079,-0.141 3.064,-0.422 z m 2.993,-8.381 c 0,1.091 -0.88,2.113 -2.113,2.113 -1.232,0 -2.183,-0.953 -2.183,-2.185 0,-1.126 0.951,-2.148 2.183,-2.148 1.127,10e-4 2.113,0.917 2.113,2.22 z"
   id="path119" />
		<path
   style="fill:#204470"
   d="m 351.728,353.067 c 0,1.091 -0.951,2.113 -2.184,2.113 -1.126,0 -2.148,-0.882 -2.148,-2.15 0,-1.161 1.022,-2.113 2.148,-2.113 1.162,0 2.184,0.917 2.184,2.15 z m 6.585,-10.776 c 0,3.133 -2.008,5.106 -5.212,5.106 h -5.387 v -3.17 h 4.543 c 1.726,0 2.571,-0.916 2.571,-2.781 v -3.486 l -0.599,-4.508 4.085,-0.916 v 9.755 z m -0.986,10.776 c 0,1.091 -0.916,2.113 -2.148,2.113 -1.163,0 -2.184,-0.882 -2.184,-2.15 0,-1.161 1.022,-2.113 2.184,-2.113 1.126,0 2.148,0.917 2.148,2.15 z"
   id="path120" />
		<path
   style="fill:#204470"
   d="m 375.53,340.389 v 3.803 l 0.527,3.205 h -13.982 l 0.916,-3.17 h 8.91 l 0.106,-0.739 v -3.698 c 0,-1.725 -0.352,-3.064 -1.022,-4.086 -0.633,-0.88 -1.444,-1.338 -2.464,-1.338 -0.318,0 -0.705,0.071 -1.093,0.247 0,-0.35 -0.069,-1.022 -0.175,-1.971 0.106,0 0.493,-0.037 1.091,-0.142 2.148,0 3.875,0.741 5.178,2.256 1.303,1.477 1.971,3.342 2.008,5.633 z"
   id="path121" />
		<path
   style="fill:#204470"
   d="m 396.903,347.397 h -4.156 c -0.599,4.05 -3.101,6.656 -7.432,7.784 l -0.739,-1.374 c 3.028,-1.163 4.614,-3.311 4.789,-6.41 h -3.345 c -1.902,0 -3.451,-0.564 -4.614,-1.725 -1.303,-1.234 -1.973,-2.889 -1.973,-5.001 0,-2.573 0.741,-4.614 2.254,-6.199 1.515,-1.586 3.522,-2.395 5.988,-2.395 h 5.141 v 12.149 h 4.086 v 3.171 z m -7.643,-3.17 V 334.12 h -1.796 c -2.781,0 -4.437,2.254 -4.437,5.917 0,2.781 1.091,4.19 3.274,4.19 z"
   id="path122" />
		<path
   style="fill:#204470"
   d="m 420.632,347.397 h -8.382 c -1.057,0 -2.289,-0.316 -3.663,-0.914 -0.246,0.139 -1.055,0.175 -2.429,0.139 -1.022,0 -1.515,0.248 -1.549,0.776 h -8.698 v -3.17 h 8.169 c 0.458,0 0.882,-0.035 1.34,-0.141 -0.81,-0.705 -2.747,-2.535 -5.847,-5.493 0,-1.655 0.882,-3.17 2.643,-4.508 1.796,-1.338 3.944,-2.008 6.444,-2.008 2.466,0 4.614,0.67 6.444,2.042 1.726,1.303 2.571,2.818 2.571,4.473 -0.352,0.316 -2.325,2.148 -5.917,5.493 0.458,0.106 0.951,0.141 1.409,0.141 h 7.466 v 3.17 z m -6.762,-9.437 c -0.106,-0.705 -0.564,-1.34 -1.374,-1.869 -1.02,-0.631 -2.323,-0.949 -3.838,-0.949 -1.515,0 -2.781,0.318 -3.803,0.949 -0.845,0.6 -1.338,1.199 -1.444,1.869 1.163,1.126 2.887,2.781 5.247,4.964 z"
   id="path123" />
		<path
   style="fill:#204470"
   d="m 449.574,347.397 h -1.867 c -1.409,0 -2.57,-0.352 -3.521,-1.057 -0.882,0.704 -2.008,1.057 -3.347,1.057 -1.865,0 -3.415,-0.67 -4.718,-2.008 -0.951,1.338 -2.36,2.008 -4.261,2.008 -1.796,0 -3.382,-0.705 -4.754,-2.079 -0.177,0.248 -0.423,0.493 -0.67,0.741 -0.951,0.88 -2.183,1.338 -3.769,1.338 h -4.084 v -3.17 h 3.239 c 1.69,0 2.537,-0.916 2.537,-2.781 l 0.069,-6.796 3.451,-0.776 v 8.769 0.423 c 0.882,0.81 1.902,1.197 3.064,1.197 1.655,0 2.5,-0.916 2.5,-2.783 v -6.831 l 3.488,-0.776 v 9.087 c 0.88,0.88 1.865,1.303 3.028,1.303 1.655,0 2.5,-0.916 2.5,-2.783 v -3.451 l -0.67,-4.577 4.192,-0.953 v 8.981 c 0,1.831 0.845,2.747 2.535,2.747 h 1.057 v 3.17 z"
   id="path124" />
		<path
   style="fill:#204470"
   d="m 460.449,342.15 c 0,3.274 -2.008,5.247 -5.249,5.247 h -6.585 v -3.17 h 5.74 c 1.726,0 2.572,-0.949 2.572,-2.887 v -11.198 l -0.599,-4.65 4.121,-0.985 z"
   id="path125" />
		<path
   style="fill:#204470"
   d="m 468.755,324.646 -0.387,4.685 v 18.066 h -3.488 v -18.032 l -0.527,-4.367 z"
   id="path126" />
		<path
   style="fill:#204470"
   d="m 129.941,363.642 c -0.883,0 -1.603,0.259 -2.16,0.779 -0.557,0.518 -0.836,1.122 -0.836,1.814 0,0.71 0.216,1.292 0.648,1.743 0.433,0.453 0.975,0.859 1.628,1.224 0.652,0.365 1.354,0.716 2.102,1.051 0.749,0.336 1.45,0.75 2.103,1.239 0.652,0.489 1.195,1.084 1.627,1.785 0.433,0.701 0.649,1.599 0.649,2.694 0,0.96 -0.184,1.84 -0.548,2.635 -0.365,0.797 -0.883,1.478 -1.556,2.046 -0.673,0.568 -1.474,0.998 -2.405,1.296 -0.932,0.297 -1.973,0.447 -3.125,0.447 -1.037,0 -1.964,-0.111 -2.78,-0.332 -0.817,-0.219 -1.435,-0.493 -1.858,-0.821 0.192,-0.671 0.355,-1.285 0.49,-1.843 0.134,-0.557 0.249,-1.161 0.345,-1.814 h 0.548 c 0.077,0.423 0.221,0.821 0.433,1.195 0.211,0.374 0.48,0.706 0.807,0.995 0.326,0.288 0.72,0.513 1.181,0.675 0.461,0.164 0.979,0.245 1.555,0.245 1.153,0 2.002,-0.288 2.549,-0.863 0.548,-0.575 0.821,-1.268 0.821,-2.075 0,-0.728 -0.212,-1.325 -0.634,-1.785 -0.423,-0.46 -0.95,-0.869 -1.584,-1.225 -0.633,-0.356 -1.325,-0.701 -2.074,-1.036 -0.748,-0.336 -1.44,-0.743 -2.073,-1.225 -0.634,-0.478 -1.162,-1.07 -1.585,-1.77 -0.423,-0.701 -0.633,-1.599 -0.633,-2.694 0,-1 0.177,-1.883 0.533,-2.65 0.355,-0.768 0.83,-1.412 1.425,-1.931 0.595,-0.518 1.282,-0.912 2.059,-1.181 0.778,-0.268 1.599,-0.403 2.463,-0.403 1.038,0 1.945,0.124 2.723,0.374 0.777,0.25 1.445,0.597 2.001,1.038 -0.173,0.442 -0.321,0.869 -0.446,1.281 -0.125,0.412 -0.284,0.936 -0.475,1.569 h -0.432 c -0.615,-1.651 -1.777,-2.477 -3.486,-2.477 z"
   id="path127" />
		<path
   style="fill:#204470"
   d="m 141.045,368.31 c 0.931,-0.347 1.858,-0.518 2.78,-0.518 0.767,0 1.474,0.086 2.117,0.259 0.643,0.172 1.2,0.445 1.671,0.821 0.47,0.372 0.836,0.858 1.095,1.453 0.259,0.595 0.389,1.318 0.389,2.161 0,1.23 -0.015,2.367 -0.044,3.413 -0.028,1.047 -0.043,2.09 -0.043,3.126 0,0.462 0.034,0.821 0.101,1.08 0.067,0.259 0.168,0.456 0.302,0.59 0.134,0.135 0.312,0.223 0.533,0.259 0.221,0.04 0.475,0.059 0.764,0.059 v 0.692 c -0.557,0.23 -1.028,0.403 -1.412,0.518 -0.384,0.115 -0.798,0.173 -1.239,0.173 -0.71,0 -1.287,-0.173 -1.728,-0.518 -0.442,-0.347 -0.777,-0.847 -1.008,-1.498 -0.442,0.615 -0.955,1.104 -1.54,1.469 -0.587,0.365 -1.321,0.547 -2.204,0.547 -0.73,0 -1.354,-0.097 -1.872,-0.288 -0.518,-0.192 -0.946,-0.465 -1.282,-0.821 -0.336,-0.354 -0.581,-0.759 -0.734,-1.21 -0.154,-0.451 -0.23,-0.907 -0.23,-1.367 0,-0.635 0.1,-1.183 0.302,-1.643 0.202,-0.462 0.49,-0.854 0.864,-1.183 0.374,-0.325 0.821,-0.599 1.34,-0.819 0.518,-0.221 1.104,-0.407 1.758,-0.562 0.806,-0.192 1.444,-0.36 1.915,-0.504 0.47,-0.144 0.82,-0.288 1.051,-0.433 0.231,-0.144 0.379,-0.303 0.446,-0.475 0.068,-0.173 0.101,-0.383 0.101,-0.635 0,-0.69 -0.245,-1.281 -0.734,-1.77 -0.49,-0.489 -1.167,-0.736 -2.031,-0.736 -0.327,0 -0.663,0.044 -1.008,0.13 -0.345,0.088 -0.676,0.208 -0.994,0.361 -0.317,0.153 -0.605,0.321 -0.864,0.504 -0.259,0.182 -0.456,0.38 -0.591,0.591 h -0.202 l -0.374,-1.73 c 0.805,-0.653 1.673,-1.151 2.605,-1.496 z m 4.234,7.446 c 0.009,-0.433 0.015,-0.812 0.015,-1.139 -0.403,0.23 -0.831,0.418 -1.282,0.562 -0.452,0.144 -0.864,0.327 -1.238,0.548 -0.375,0.221 -0.682,0.522 -0.922,0.907 -0.241,0.385 -0.361,0.94 -0.361,1.67 0,0.712 0.149,1.254 0.446,1.628 0.298,0.376 0.696,0.562 1.195,0.562 0.634,0 1.148,-0.241 1.541,-0.719 0.393,-0.482 0.59,-1.192 0.59,-2.132 0.002,-0.826 0.006,-1.456 0.016,-1.887 z"
   id="path128" />
		<path
   style="fill:#204470"
   d="m 161.57,379.947 c -0.538,0.807 -1.167,1.416 -1.887,1.829 -0.72,0.412 -1.541,0.62 -2.463,0.62 -1.44,0 -2.549,-0.403 -3.327,-1.21 -0.777,-0.807 -1.166,-2.141 -1.166,-4.004 0,-0.98 0.018,-1.843 0.058,-2.593 0.038,-0.748 0.058,-1.497 0.058,-2.245 0,-0.617 -0.015,-1.283 -0.043,-2.004 -0.029,-0.719 -0.063,-1.445 -0.101,-2.175 0.249,0.04 0.567,0.073 0.951,0.102 0.384,0.029 0.787,0.044 1.21,0.044 0.422,0 0.825,-0.015 1.209,-0.044 0.384,-0.029 0.701,-0.062 0.951,-0.102 -0.134,1.038 -0.221,2.238 -0.259,3.603 -0.038,1.363 -0.058,2.918 -0.058,4.665 0,1.212 0.206,2.099 0.62,2.665 0.412,0.568 0.994,0.851 1.742,0.851 0.864,0 1.498,-0.374 1.902,-1.124 0.403,-0.748 0.605,-1.785 0.605,-3.11 v -1.153 c 0,-1.17 -0.015,-2.27 -0.044,-3.296 -0.028,-1.029 -0.091,-2.061 -0.187,-3.099 0.537,0.098 1.258,0.146 2.161,0.146 0.442,0 0.845,-0.015 1.21,-0.044 0.364,-0.029 0.681,-0.062 0.95,-0.102 -0.096,1.038 -0.158,2.07 -0.187,3.099 -0.028,1.026 -0.043,2.126 -0.043,3.296 v 1.153 c 0,1.172 0.015,2.276 0.043,3.312 0.029,1.039 0.091,2.035 0.187,2.995 -0.345,-0.036 -0.686,-0.056 -1.022,-0.056 -0.337,0 -0.677,0 -1.023,0 -0.346,0 -0.687,0 -1.023,0 -0.336,0 -0.696,0.02 -1.08,0.056 l 0.115,-2.073 h -0.059 z"
   id="path129" />
		<path
   style="fill:#204470"
   d="m 181.503,377.326 c 0.038,1.575 0.096,3.139 0.173,4.694 -0.249,-0.036 -0.567,-0.056 -0.95,-0.056 -0.385,0 -0.788,0 -1.21,0 -0.384,0 -0.754,0 -1.11,0 -0.355,0 -0.629,0.02 -0.82,0.056 0.018,-0.036 0.038,-0.161 0.058,-0.372 0.019,-0.212 0.043,-0.453 0.072,-0.721 0.028,-0.268 0.053,-0.52 0.072,-0.75 0.018,-0.23 0.028,-0.374 0.028,-0.431 l -0.058,-0.059 c -0.365,0.865 -0.864,1.533 -1.497,2.002 -0.634,0.471 -1.508,0.706 -2.622,0.706 -0.979,0 -1.815,-0.188 -2.506,-0.562 -0.692,-0.374 -1.258,-0.898 -1.7,-1.569 -0.442,-0.671 -0.768,-1.46 -0.979,-2.362 -0.212,-0.903 -0.317,-1.872 -0.317,-2.909 0,-1.039 0.144,-1.993 0.432,-2.867 0.288,-0.874 0.682,-1.633 1.181,-2.276 0.499,-0.642 1.09,-1.146 1.772,-1.511 0.682,-0.365 1.406,-0.547 2.175,-0.547 0.864,0 1.637,0.201 2.319,0.604 0.682,0.403 1.186,0.913 1.513,1.528 h 0.058 c 0,-1.73 -0.019,-3.358 -0.058,-4.884 -0.039,-1.526 -0.097,-3.106 -0.173,-4.738 0.249,0.038 0.567,0.071 0.951,0.1 0.384,0.027 0.787,0.042 1.21,0.042 0.422,0 0.825,-0.015 1.21,-0.042 0.383,-0.029 0.701,-0.062 0.95,-0.1 -0.077,1.613 -0.134,3.207 -0.173,4.781 -0.039,1.573 -0.058,3.303 -0.058,5.185 v 1.872 c -0.001,1.883 0.017,3.611 0.057,5.186 z m -8.901,0.576 c 0.134,0.672 0.317,1.214 0.547,1.628 0.231,0.412 0.494,0.708 0.793,0.891 0.298,0.182 0.609,0.274 0.935,0.274 0.788,0 1.435,-0.445 1.945,-1.34 0.509,-0.891 0.764,-2.376 0.764,-4.45 0,-1.785 -0.241,-3.088 -0.72,-3.902 -0.481,-0.818 -1.095,-1.226 -1.844,-1.226 -0.307,0 -0.614,0.087 -0.922,0.259 -0.308,0.175 -0.586,0.476 -0.835,0.909 -0.25,0.431 -0.456,1.013 -0.62,1.741 -0.164,0.73 -0.245,1.643 -0.245,2.738 0,0.98 0.067,1.807 0.202,2.478 z"
   id="path130" />
		<path
   style="fill:#204470"
   d="m 185.594,361.108 c 0.442,-0.442 0.979,-0.664 1.613,-0.664 0.633,0 1.171,0.223 1.613,0.664 0.441,0.442 0.663,0.978 0.663,1.613 0,0.633 -0.222,1.172 -0.663,1.613 -0.443,0.442 -0.98,0.661 -1.613,0.661 -0.634,0 -1.172,-0.219 -1.613,-0.661 -0.442,-0.442 -0.663,-0.98 -0.663,-1.613 0,-0.634 0.221,-1.171 0.663,-1.613 z m -0.361,10.155 c -0.028,-1.029 -0.091,-2.061 -0.187,-3.099 0.269,0.04 0.586,0.073 0.951,0.102 0.365,0.029 0.767,0.044 1.21,0.044 0.903,0 1.623,-0.047 2.16,-0.146 -0.096,1.038 -0.158,2.07 -0.187,3.099 -0.028,1.026 -0.043,2.126 -0.043,3.296 v 1.153 c 0,1.172 0.015,2.276 0.043,3.312 0.029,1.039 0.091,2.035 0.187,2.995 -0.249,-0.036 -0.561,-0.056 -0.936,-0.056 -0.374,0 -0.782,0 -1.224,0 -0.443,0 -0.845,0 -1.21,0 -0.365,0 -0.682,0.02 -0.951,0.056 0.096,-0.96 0.159,-1.956 0.187,-2.995 0.029,-1.037 0.044,-2.141 0.044,-3.312 v -1.153 c 0,-1.17 -0.015,-2.27 -0.044,-3.296 z"
   id="path131" />
		<path
   style="fill:#204470"
   d="m 216.962,379.99 c -0.115,0.412 -0.192,0.821 -0.23,1.223 -1.556,0.788 -3.514,1.183 -5.877,1.183 -1.671,0 -3.164,-0.235 -4.479,-0.706 -1.315,-0.469 -2.429,-1.133 -3.341,-1.988 -0.913,-0.854 -1.609,-1.867 -2.089,-3.039 -0.48,-1.172 -0.72,-2.44 -0.72,-3.801 0,-1.999 0.312,-3.694 0.936,-5.085 0.623,-1.393 1.459,-2.526 2.506,-3.4 1.047,-0.874 2.261,-1.513 3.644,-1.914 1.383,-0.405 2.833,-0.606 4.35,-0.606 0.499,0 1.027,0.038 1.584,0.115 0.557,0.078 1.095,0.177 1.613,0.303 0.518,0.126 1.013,0.274 1.484,0.447 0.47,0.172 0.869,0.354 1.195,0.547 -0.192,0.478 -0.341,0.964 -0.447,1.453 -0.105,0.491 -0.177,0.985 -0.215,1.486 h -0.403 c -0.73,-0.923 -1.479,-1.58 -2.247,-1.975 -0.768,-0.394 -1.671,-0.591 -2.709,-0.591 -0.768,0 -1.541,0.175 -2.319,0.518 -0.777,0.347 -1.484,0.876 -2.117,1.586 -0.634,0.71 -1.148,1.619 -1.541,2.721 -0.394,1.106 -0.59,2.425 -0.59,3.96 0,1.48 0.202,2.743 0.605,3.789 0.403,1.047 0.926,1.902 1.569,2.564 0.643,0.663 1.373,1.148 2.189,1.455 0.817,0.306 1.637,0.46 2.463,0.46 0.461,0 0.932,-0.051 1.412,-0.157 0.48,-0.106 0.951,-0.25 1.412,-0.433 0.461,-0.182 0.897,-0.407 1.31,-0.677 0.413,-0.268 0.773,-0.566 1.08,-0.894 l 0.374,0.232 c -0.152,0.403 -0.286,0.812 -0.402,1.224 z"
   id="path132" />
		<path
   style="fill:#204470"
   d="m 224.077,371.737 c 0.499,-1.325 1.104,-2.3 1.815,-2.924 0.71,-0.624 1.556,-0.936 2.535,-0.936 0.096,0 0.177,0.005 0.244,0.013 0.068,0.011 0.14,0.015 0.216,0.015 -0.058,0.288 -0.101,0.597 -0.13,0.924 -0.029,0.325 -0.043,0.71 -0.043,1.152 v 0.922 c 0,0.153 0,0.318 0,0.489 0,0.173 0.009,0.336 0.028,0.489 l -0.259,0.232 c -0.192,-0.115 -0.408,-0.21 -0.648,-0.288 -0.241,-0.077 -0.515,-0.115 -0.821,-0.115 -0.864,0 -1.546,0.285 -2.045,0.85 -0.5,0.566 -0.749,1.234 -0.749,2 v 1.153 c 0,1.172 0.015,2.276 0.043,3.312 0.029,1.039 0.091,2.035 0.188,2.995 -0.25,-0.036 -0.56,-0.056 -0.932,-0.056 -0.372,0 -0.777,0 -1.215,0 -0.439,0 -0.839,0 -1.202,0 -0.362,0 -0.676,0.02 -0.943,0.056 0.084,-0.96 0.139,-1.956 0.164,-2.995 0.025,-1.037 0.038,-2.141 0.038,-3.312 v -1.153 c 0,-1.17 -0.013,-2.27 -0.038,-3.296 -0.025,-1.029 -0.08,-2.061 -0.164,-3.099 0.324,0.04 0.652,0.073 0.986,0.102 0.333,0.029 0.662,0.044 0.986,0.044 0.324,0 0.652,-0.015 0.987,-0.044 0.334,-0.029 0.662,-0.062 0.987,-0.102 l -0.087,3.515 z"
   id="path133" />
		<path
   style="fill:#204470"
   d="m 235.081,377.297 c 0.153,0.672 0.389,1.252 0.706,1.743 0.317,0.491 0.72,0.874 1.209,1.152 0.49,0.279 1.061,0.418 1.715,0.418 1.325,0 2.506,-0.433 3.542,-1.296 l 0.346,0.259 -0.633,1.613 c -0.481,0.365 -1.057,0.659 -1.728,0.878 -0.673,0.221 -1.556,0.332 -2.65,0.332 -0.942,0 -1.834,-0.131 -2.679,-0.391 -0.845,-0.259 -1.589,-0.686 -2.233,-1.281 -0.643,-0.595 -1.152,-1.349 -1.527,-2.259 -0.374,-0.913 -0.561,-2.004 -0.561,-3.27 0,-1.248 0.168,-2.332 0.504,-3.256 0.336,-0.922 0.802,-1.69 1.397,-2.303 0.595,-0.615 1.301,-1.077 2.117,-1.383 0.817,-0.307 1.705,-0.46 2.665,-0.46 1.902,0 3.356,0.557 4.365,1.67 1.008,1.115 1.512,2.688 1.512,4.725 v 0.604 c 0,0.173 -0.01,0.286 -0.029,0.345 h -8.266 c -0.002,0.769 0.075,1.488 0.228,2.16 z m 3.673,-6.914 c -0.317,-0.865 -0.85,-1.296 -1.599,-1.296 -0.423,0 -0.777,0.142 -1.066,0.431 -0.289,0.289 -0.518,0.659 -0.692,1.11 -0.172,0.453 -0.302,0.96 -0.389,1.526 -0.086,0.568 -0.14,1.13 -0.158,1.686 h 4.436 c -0.037,-1.44 -0.215,-2.592 -0.532,-3.457 z"
   id="path134" />
		<path
   style="fill:#204470"
   d="m 258.355,377.326 c 0.039,1.575 0.097,3.139 0.173,4.694 -0.25,-0.036 -0.566,-0.056 -0.951,-0.056 -0.383,0 -0.787,0 -1.21,0 -0.383,0 -0.754,0 -1.108,0 -0.356,0 -0.63,0.02 -0.821,0.056 0.018,-0.036 0.038,-0.161 0.057,-0.372 0.02,-0.212 0.044,-0.453 0.073,-0.721 0.029,-0.268 0.053,-0.52 0.071,-0.75 0.02,-0.23 0.029,-0.374 0.029,-0.431 l -0.057,-0.059 c -0.365,0.865 -0.865,1.533 -1.498,2.002 -0.635,0.471 -1.509,0.706 -2.622,0.706 -0.979,0 -1.815,-0.188 -2.506,-0.562 -0.692,-0.374 -1.258,-0.898 -1.7,-1.569 -0.442,-0.672 -0.768,-1.46 -0.979,-2.362 -0.212,-0.903 -0.317,-1.872 -0.317,-2.909 0,-1.039 0.144,-1.993 0.432,-2.867 0.288,-0.874 0.682,-1.633 1.181,-2.276 0.499,-0.642 1.09,-1.146 1.772,-1.511 0.682,-0.365 1.406,-0.547 2.175,-0.547 0.864,0 1.637,0.201 2.32,0.604 0.681,0.403 1.184,0.913 1.511,1.528 h 0.058 c 0,-1.73 -0.02,-3.358 -0.058,-4.884 -0.038,-1.526 -0.095,-3.106 -0.172,-4.738 0.248,0.038 0.566,0.071 0.949,0.1 0.385,0.027 0.788,0.042 1.21,0.042 0.423,0 0.827,-0.015 1.21,-0.042 0.385,-0.029 0.701,-0.062 0.951,-0.1 -0.077,1.613 -0.135,3.207 -0.173,4.781 -0.038,1.573 -0.056,3.303 -0.056,5.185 v 1.872 c 0,1.883 0.018,3.611 0.056,5.186 z m -8.9,0.576 c 0.134,0.672 0.317,1.214 0.547,1.628 0.231,0.412 0.495,0.708 0.793,0.891 0.298,0.182 0.609,0.274 0.935,0.274 0.788,0 1.435,-0.445 1.945,-1.34 0.507,-0.891 0.763,-2.376 0.763,-4.45 0,-1.785 -0.241,-3.088 -0.721,-3.902 -0.48,-0.818 -1.093,-1.226 -1.843,-1.226 -0.308,0 -0.614,0.087 -0.922,0.259 -0.307,0.175 -0.586,0.476 -0.835,0.909 -0.25,0.431 -0.456,1.013 -0.62,1.741 -0.163,0.73 -0.245,1.643 -0.245,2.738 0.002,0.98 0.068,1.807 0.203,2.478 z"
   id="path135" />
		<path
   style="fill:#204470"
   d="m 262.447,361.108 c 0.442,-0.442 0.98,-0.664 1.613,-0.664 0.633,0 1.172,0.223 1.613,0.664 0.442,0.442 0.663,0.978 0.663,1.613 0,0.633 -0.221,1.172 -0.663,1.613 -0.442,0.442 -0.98,0.661 -1.613,0.661 -0.633,0 -1.172,-0.219 -1.613,-0.661 -0.442,-0.442 -0.663,-0.98 -0.663,-1.613 0,-0.634 0.221,-1.171 0.663,-1.613 z m -0.36,10.155 c -0.029,-1.029 -0.091,-2.061 -0.188,-3.099 0.268,0.04 0.586,0.073 0.951,0.102 0.365,0.029 0.768,0.044 1.21,0.044 0.902,0 1.622,-0.047 2.161,-0.146 -0.097,1.038 -0.159,2.07 -0.188,3.099 -0.029,1.026 -0.044,2.126 -0.044,3.296 v 1.153 c 0,1.172 0.015,2.276 0.044,3.312 0.029,1.039 0.091,2.035 0.188,2.995 -0.25,-0.036 -0.562,-0.056 -0.936,-0.056 -0.374,0 -0.783,0 -1.225,0 -0.442,0 -0.845,0 -1.21,0 -0.365,0 -0.682,0.02 -0.951,0.056 0.097,-0.96 0.159,-1.956 0.188,-2.995 0.029,-1.037 0.042,-2.141 0.042,-3.312 v -1.153 c 0,-1.17 -0.013,-2.27 -0.042,-3.296 z"
   id="path136" />
		<path
   style="fill:#204470"
   d="m 277.08,369.087 c 0,0.248 0.029,0.489 0.088,0.719 l -2.535,-0.059 c -0.04,0.443 -0.073,0.953 -0.102,1.529 -0.027,0.575 -0.047,1.161 -0.057,1.756 -0.011,0.595 -0.02,1.172 -0.029,1.728 -0.009,0.557 -0.015,1.027 -0.015,1.411 0,1 0.024,1.807 0.073,2.42 0.047,0.615 0.13,1.086 0.244,1.412 0.115,0.327 0.278,0.548 0.489,0.661 0.212,0.117 0.48,0.175 0.807,0.175 0.365,0 0.633,-0.026 0.807,-0.073 0.173,-0.047 0.345,-0.12 0.518,-0.215 v 1.179 c -0.385,0.175 -0.863,0.328 -1.44,0.463 -0.577,0.133 -1.143,0.201 -1.699,0.201 -2.44,0 -3.659,-1.46 -3.659,-4.38 0,-0.555 0.009,-1.184 0.029,-1.885 0.018,-0.701 0.044,-1.422 0.071,-2.161 0.029,-0.739 0.053,-1.469 0.073,-2.188 0.018,-0.721 0.029,-1.387 0.029,-2.004 l -2.017,0.029 c 0.056,-0.23 0.086,-0.471 0.086,-0.719 0,-0.23 -0.029,-0.489 -0.086,-0.777 l 2.017,0.086 c 0,-0.595 -0.011,-1.152 -0.029,-1.67 -0.02,-0.518 -0.049,-1.143 -0.086,-1.873 0.671,-0.27 1.334,-0.553 1.987,-0.85 0.652,-0.298 1.305,-0.609 1.958,-0.936 l 0.288,0.203 c -0.038,0.307 -0.073,0.666 -0.102,1.081 -0.027,0.412 -0.057,0.843 -0.086,1.296 -0.029,0.451 -0.047,0.913 -0.057,1.382 -0.011,0.471 -0.015,0.918 -0.015,1.34 l 2.535,-0.057 c -0.056,0.287 -0.085,0.547 -0.085,0.776 z"
   id="path137" />
		<path
   style="fill:#204470"
   d="m 288.191,365.961 c -0.044,-1.239 -0.108,-2.48 -0.195,-3.73 0.327,0.038 0.682,0.071 1.066,0.1 0.385,0.029 0.818,0.044 1.298,0.044 0.825,0 1.69,-0.024 2.592,-0.073 0.903,-0.047 1.767,-0.071 2.593,-0.071 0.863,0 1.651,0.086 2.361,0.261 0.71,0.172 1.325,0.434 1.843,0.792 0.518,0.354 0.918,0.814 1.195,1.381 0.279,0.568 0.418,1.243 0.418,2.031 0,0.788 -0.164,1.464 -0.491,2.03 -0.328,0.568 -0.728,1.037 -1.201,1.412 -0.473,0.374 -0.984,0.668 -1.531,0.878 -0.551,0.212 -1.047,0.356 -1.491,0.432 v 0.058 c 0.442,0.018 0.96,0.121 1.553,0.303 0.595,0.182 1.159,0.463 1.696,0.849 0.537,0.385 0.993,0.878 1.365,1.484 0.374,0.604 0.562,1.34 0.562,2.203 0,1.039 -0.188,1.922 -0.562,2.652 -0.372,0.73 -0.87,1.325 -1.495,1.785 -0.622,0.46 -1.336,0.781 -2.141,0.964 -0.805,0.184 -1.639,0.274 -2.5,0.274 -0.768,0 -1.482,-0.009 -2.143,-0.027 -0.661,-0.02 -1.356,-0.029 -2.084,-0.029 -0.517,0 -1.049,0 -1.595,0 -0.546,0 -0.982,0.02 -1.309,0.056 0.088,-1.19 0.152,-2.405 0.195,-3.643 0.044,-1.239 0.066,-2.654 0.066,-4.249 v -3.917 c 0,-1.594 -0.021,-3.01 -0.065,-4.25 z m 8.749,-0.027 c -0.106,-0.412 -0.283,-0.77 -0.533,-1.066 -0.25,-0.299 -0.566,-0.538 -0.951,-0.721 -0.383,-0.183 -0.863,-0.274 -1.44,-0.274 -0.422,0 -0.715,0.005 -0.878,0.015 -0.164,0.009 -0.341,0.035 -0.533,0.071 -0.038,0.712 -0.067,1.431 -0.086,2.161 -0.02,0.73 -0.029,1.343 -0.029,1.843 0,0.518 0.004,1.015 0.015,1.484 0.009,0.471 0.015,0.955 0.015,1.454 h 1.296 c 0.403,0 0.801,-0.077 1.195,-0.23 0.392,-0.153 0.743,-0.38 1.051,-0.677 0.307,-0.298 0.557,-0.677 0.748,-1.137 0.192,-0.462 0.288,-1 0.288,-1.613 10e-4,-0.462 -0.052,-0.898 -0.158,-1.31 z m -0.547,7.603 c -0.604,-0.661 -1.482,-0.993 -2.635,-0.993 -0.268,0 -0.5,0.004 -0.692,0.015 -0.192,0.009 -0.374,0.015 -0.546,0.015 0,0.401 -0.005,0.821 -0.015,1.252 -0.011,0.432 -0.015,0.945 -0.015,1.54 0,0.462 0.004,0.933 0.015,1.413 0.009,0.48 0.015,0.951 0.015,1.412 0,0.46 0.004,0.883 0.013,1.267 0.011,0.383 0.015,0.701 0.015,0.949 0.27,0.022 0.518,0.035 0.75,0.044 0.23,0.011 0.507,0.015 0.834,0.015 0.423,0 0.827,-0.086 1.21,-0.259 0.385,-0.172 0.721,-0.427 1.009,-0.763 0.288,-0.336 0.518,-0.745 0.692,-1.224 0.172,-0.48 0.259,-1.037 0.259,-1.67 -0.001,-1.345 -0.303,-2.349 -0.909,-3.013 z"
   id="path138" />
		<path
   style="fill:#204470"
   d="m 313.663,379.947 c -0.538,0.807 -1.166,1.416 -1.887,1.829 -0.721,0.412 -1.54,0.62 -2.462,0.62 -1.442,0 -2.549,-0.403 -3.327,-1.21 -0.779,-0.807 -1.168,-2.141 -1.168,-4.004 0,-0.98 0.02,-1.843 0.059,-2.593 0.038,-0.748 0.057,-1.497 0.057,-2.245 0,-0.617 -0.013,-1.283 -0.042,-2.004 -0.029,-0.719 -0.064,-1.445 -0.1,-2.175 0.248,0.04 0.566,0.073 0.949,0.102 0.385,0.029 0.788,0.044 1.21,0.044 0.423,0 0.827,-0.015 1.21,-0.044 0.385,-0.029 0.701,-0.062 0.951,-0.102 -0.135,1.038 -0.221,2.238 -0.259,3.603 -0.038,1.363 -0.058,2.918 -0.058,4.665 0,1.212 0.206,2.099 0.62,2.665 0.412,0.568 0.993,0.851 1.743,0.851 0.863,0 1.496,-0.374 1.9,-1.124 0.403,-0.748 0.606,-1.785 0.606,-3.11 v -1.153 c 0,-1.17 -0.015,-2.27 -0.044,-3.296 -0.029,-1.029 -0.091,-2.061 -0.186,-3.099 0.537,0.098 1.258,0.146 2.159,0.146 0.442,0 0.845,-0.015 1.21,-0.044 0.365,-0.029 0.683,-0.062 0.951,-0.102 -0.097,1.038 -0.159,2.07 -0.186,3.099 -0.029,1.026 -0.044,2.126 -0.044,3.296 v 1.153 c 0,1.172 0.015,2.276 0.044,3.312 0.027,1.039 0.09,2.035 0.186,2.995 -0.345,-0.036 -0.686,-0.056 -1.022,-0.056 -0.336,0 -0.677,0 -1.022,0 -0.347,0 -0.688,0 -1.024,0 -0.336,0 -0.695,0.02 -1.08,0.056 l 0.115,-2.073 h -0.059 z"
   id="path139" />
		<path
   style="fill:#204470"
   d="m 324.927,371.737 c 0.498,-1.325 1.104,-2.3 1.814,-2.924 0.71,-0.624 1.555,-0.936 2.535,-0.936 0.095,0 0.177,0.005 0.244,0.013 0.068,0.011 0.139,0.015 0.215,0.015 -0.057,0.288 -0.101,0.597 -0.13,0.924 -0.027,0.325 -0.042,0.71 -0.042,1.152 v 0.922 c 0,0.153 0,0.318 0,0.489 0,0.173 0.009,0.336 0.029,0.489 l -0.261,0.232 c -0.192,-0.115 -0.407,-0.21 -0.648,-0.288 -0.239,-0.077 -0.513,-0.115 -0.819,-0.115 -0.865,0 -1.548,0.285 -2.046,0.85 -0.5,0.566 -0.748,1.234 -0.748,2 v 1.153 c 0,1.172 0.013,2.276 0.042,3.312 0.029,1.039 0.091,2.035 0.188,2.995 -0.25,-0.036 -0.56,-0.056 -0.931,-0.056 -0.372,0 -0.778,0 -1.217,0 -0.438,0 -0.838,0 -1.201,0 -0.361,0 -0.677,0.02 -0.944,0.056 0.084,-0.96 0.139,-1.956 0.164,-2.995 0.026,-1.037 0.038,-2.141 0.038,-3.312 v -1.153 c 0,-1.17 -0.013,-2.27 -0.038,-3.296 -0.025,-1.029 -0.08,-2.061 -0.164,-3.099 0.325,0.04 0.653,0.073 0.986,0.102 0.334,0.029 0.663,0.044 0.987,0.044 0.325,0 0.653,-0.015 0.987,-0.044 0.332,-0.029 0.663,-0.062 0.986,-0.102 l -0.086,3.515 z"
   id="path140" />
		<path
   style="fill:#204470"
   d="m 335.928,377.297 c 0.153,0.672 0.389,1.252 0.706,1.743 0.316,0.491 0.719,0.874 1.21,1.152 0.489,0.279 1.06,0.418 1.714,0.418 1.325,0 2.506,-0.433 3.542,-1.296 l 0.347,0.259 -0.635,1.613 c -0.48,0.365 -1.055,0.659 -1.728,0.878 -0.672,0.221 -1.555,0.332 -2.65,0.332 -0.94,0 -1.834,-0.131 -2.679,-0.391 -0.845,-0.259 -1.588,-0.686 -2.232,-1.281 -0.642,-0.595 -1.152,-1.349 -1.526,-2.259 -0.376,-0.913 -0.562,-2.004 -0.562,-3.27 0,-1.248 0.168,-2.332 0.504,-3.256 0.336,-0.922 0.801,-1.69 1.398,-2.303 0.595,-0.615 1.299,-1.077 2.117,-1.383 0.816,-0.307 1.703,-0.46 2.665,-0.46 1.9,0 3.354,0.557 4.364,1.67 1.007,1.115 1.513,2.688 1.513,4.725 v 0.604 c 0,0.173 -0.011,0.286 -0.029,0.345 H 335.7 c -0.002,0.769 0.075,1.488 0.228,2.16 z m 3.674,-6.914 c -0.318,-0.865 -0.851,-1.296 -1.599,-1.296 -0.423,0 -0.779,0.142 -1.066,0.431 -0.288,0.288 -0.52,0.659 -0.692,1.11 -0.173,0.453 -0.303,0.96 -0.389,1.526 -0.087,0.568 -0.14,1.13 -0.159,1.686 h 4.437 c -0.039,-1.44 -0.216,-2.592 -0.532,-3.457 z"
   id="path141" />
		<path
   style="fill:#204470"
   d="m 349.165,368.31 c 0.931,-0.347 1.858,-0.518 2.78,-0.518 0.768,0 1.473,0.086 2.117,0.259 0.644,0.172 1.201,0.445 1.672,0.821 0.469,0.372 0.834,0.858 1.093,1.453 0.259,0.595 0.389,1.318 0.389,2.161 0,1.23 -0.015,2.367 -0.042,3.413 -0.029,1.047 -0.044,2.09 -0.044,3.126 0,0.462 0.033,0.821 0.1,1.08 0.067,0.259 0.168,0.456 0.303,0.59 0.135,0.135 0.312,0.223 0.533,0.259 0.221,0.04 0.475,0.059 0.763,0.059 v 0.692 c -0.557,0.23 -1.027,0.403 -1.411,0.518 -0.385,0.115 -0.798,0.173 -1.239,0.173 -0.71,0 -1.287,-0.173 -1.728,-0.518 -0.442,-0.347 -0.777,-0.847 -1.008,-1.498 -0.442,0.615 -0.956,1.104 -1.542,1.469 -0.586,0.365 -1.319,0.547 -2.203,0.547 -0.73,0 -1.354,-0.097 -1.873,-0.288 -0.518,-0.192 -0.945,-0.465 -1.281,-0.821 -0.338,-0.354 -0.582,-0.759 -0.736,-1.21 -0.153,-0.451 -0.23,-0.907 -0.23,-1.367 0,-0.635 0.1,-1.183 0.303,-1.643 0.201,-0.462 0.489,-0.854 0.863,-1.183 0.374,-0.325 0.821,-0.599 1.34,-0.819 0.518,-0.221 1.104,-0.407 1.757,-0.562 0.807,-0.192 1.444,-0.36 1.915,-0.504 0.471,-0.144 0.821,-0.288 1.051,-0.433 0.232,-0.144 0.38,-0.303 0.447,-0.475 0.068,-0.173 0.1,-0.383 0.1,-0.635 0,-0.69 -0.244,-1.281 -0.734,-1.77 -0.489,-0.489 -1.166,-0.736 -2.031,-0.736 -0.327,0 -0.662,0.044 -1.007,0.13 -0.347,0.088 -0.677,0.208 -0.995,0.361 -0.316,0.153 -0.604,0.321 -0.863,0.504 -0.259,0.182 -0.456,0.38 -0.591,0.591 h -0.201 l -0.376,-1.73 c 0.808,-0.653 1.677,-1.151 2.609,-1.496 z m 4.235,7.446 c 0.009,-0.433 0.015,-0.812 0.015,-1.139 -0.403,0.23 -0.831,0.418 -1.281,0.562 -0.453,0.144 -0.865,0.327 -1.239,0.548 -0.374,0.221 -0.682,0.522 -0.922,0.907 -0.241,0.385 -0.36,0.94 -0.36,1.67 0,0.712 0.148,1.254 0.445,1.628 0.298,0.376 0.695,0.562 1.195,0.562 0.633,0 1.148,-0.241 1.542,-0.719 0.392,-0.482 0.59,-1.192 0.59,-2.132 0,-0.826 0.005,-1.456 0.015,-1.887 z"
   id="path142" />
		<path
   style="fill:#204470"
   d="m 369.69,379.947 c -0.538,0.807 -1.166,1.416 -1.887,1.829 -0.721,0.412 -1.54,0.62 -2.462,0.62 -1.442,0 -2.549,-0.403 -3.327,-1.21 -0.779,-0.807 -1.168,-2.141 -1.168,-4.004 0,-0.98 0.02,-1.843 0.058,-2.593 0.038,-0.748 0.057,-1.497 0.057,-2.245 0,-0.617 -0.013,-1.283 -0.042,-2.004 -0.029,-0.719 -0.064,-1.445 -0.1,-2.175 0.248,0.04 0.566,0.073 0.949,0.102 0.385,0.029 0.788,0.044 1.21,0.044 0.423,0 0.827,-0.015 1.21,-0.044 0.385,-0.029 0.701,-0.062 0.951,-0.102 -0.135,1.038 -0.221,2.238 -0.259,3.603 -0.038,1.363 -0.058,2.918 -0.058,4.665 0,1.212 0.206,2.099 0.62,2.665 0.412,0.568 0.993,0.851 1.743,0.851 0.863,0 1.497,-0.374 1.9,-1.124 0.403,-0.748 0.606,-1.785 0.606,-3.11 v -1.153 c 0,-1.17 -0.015,-2.27 -0.044,-3.296 -0.029,-1.029 -0.091,-2.061 -0.186,-3.099 0.537,0.098 1.258,0.146 2.159,0.146 0.442,0 0.845,-0.015 1.21,-0.044 0.365,-0.029 0.682,-0.062 0.951,-0.102 -0.097,1.038 -0.159,2.07 -0.186,3.099 -0.029,1.026 -0.044,2.126 -0.044,3.296 v 1.153 c 0,1.172 0.015,2.276 0.044,3.312 0.027,1.039 0.09,2.035 0.186,2.995 -0.345,-0.036 -0.686,-0.056 -1.022,-0.056 -0.336,0 -0.677,0 -1.022,0 -0.347,0 -0.688,0 -1.024,0 -0.336,0 -0.695,0.02 -1.08,0.056 l 0.115,-2.073 h -0.058 z"
   id="path143" />
	</g>
	<g
   id="g148">
		<path
   style="fill:#204470"
   d="m 305.605,303.696 c 0.356,0.515 0.792,0.949 1.307,1.307 0.515,0.354 1.097,0.632 1.748,0.827 0.65,0.197 1.33,0.294 2.042,0.294 0.442,0 0.883,-0.047 1.325,-0.146 0.442,-0.098 0.841,-0.252 1.197,-0.46 0.354,-0.208 0.644,-0.486 0.865,-0.829 0.221,-0.343 0.33,-0.748 0.33,-1.215 0,-0.442 -0.098,-0.832 -0.294,-1.177 -0.197,-0.343 -0.54,-0.688 -1.031,-1.031 -0.491,-0.343 -1.141,-0.704 -1.951,-1.084 -0.808,-0.381 -1.829,-0.828 -3.055,-1.345 -1.644,-0.686 -2.98,-1.674 -4.011,-2.962 -1.031,-1.288 -1.546,-2.865 -1.546,-4.73 0,-1.471 0.257,-2.749 0.772,-3.829 0.517,-1.079 1.216,-1.975 2.099,-2.686 0.883,-0.712 1.92,-1.245 3.11,-1.601 1.19,-0.356 2.46,-0.535 3.811,-0.535 1.325,0 2.637,0.148 3.938,0.442 1.299,0.296 2.575,0.675 3.827,1.142 -0.369,0.834 -0.681,1.741 -0.938,2.723 -0.257,0.982 -0.423,1.902 -0.498,2.761 h -1.471 c -0.197,-1.104 -0.706,-2.037 -1.528,-2.798 -0.823,-0.759 -1.896,-1.141 -3.221,-1.141 -0.392,0 -0.816,0.049 -1.27,0.148 -0.454,0.099 -0.871,0.252 -1.25,0.46 -0.381,0.208 -0.694,0.478 -0.94,0.81 -0.245,0.33 -0.367,0.741 -0.367,1.232 0,0.465 0.122,0.865 0.367,1.195 0.246,0.332 0.577,0.631 0.995,0.902 0.416,0.27 0.92,0.529 1.509,0.774 0.588,0.245 1.214,0.515 1.876,0.81 l 2.834,1.252 c 1.644,0.712 2.821,1.668 3.533,2.869 0.712,1.204 1.068,2.688 1.068,4.455 0,1.546 -0.257,2.883 -0.772,4.011 -0.517,1.13 -1.228,2.061 -2.135,2.798 -0.909,0.737 -1.988,1.27 -3.239,1.601 -1.252,0.332 -2.601,0.498 -4.048,0.498 -0.81,0 -1.546,-0.033 -2.208,-0.093 -0.663,-0.06 -1.307,-0.141 -1.933,-0.239 -0.626,-0.099 -1.258,-0.244 -1.896,-0.442 -0.638,-0.198 -1.325,-0.429 -2.06,-0.699 0.097,-0.517 0.19,-0.987 0.275,-1.418 0.086,-0.429 0.166,-0.87 0.239,-1.325 0.073,-0.453 0.141,-0.938 0.203,-1.453 0.06,-0.515 0.117,-1.117 0.166,-1.803 h 1.509 c 0.122,0.637 0.361,1.214 0.717,1.73 z"
   id="path144" />
		<path
   style="fill:#204470"
   d="m 333.726,303.346 c 0.037,2.146 0.141,4.103 0.312,5.869 -0.686,-0.12 -1.429,-0.208 -2.227,-0.255 -0.797,-0.051 -1.59,-0.075 -2.374,-0.075 -0.784,0 -1.559,0.036 -2.32,0.111 -0.759,0.073 -1.447,0.146 -2.06,0.219 0.122,-2.06 0.215,-4.084 0.275,-6.072 0.062,-1.988 0.093,-4.013 0.093,-6.074 0,-0.491 -0.007,-1.097 -0.018,-1.821 -0.013,-0.725 -0.018,-1.466 -0.018,-2.228 0,-0.785 -0.007,-1.538 -0.018,-2.263 -0.013,-0.723 -0.02,-1.331 -0.02,-1.821 0,-0.858 -0.024,-1.829 -0.073,-2.909 -0.049,-1.079 -0.122,-2.133 -0.221,-3.165 0.639,0.073 1.374,0.148 2.208,0.223 0.834,0.073 1.595,0.109 2.283,0.109 0.759,0 1.546,-0.031 2.354,-0.091 0.81,-0.062 1.533,-0.142 2.172,-0.241 -0.122,1.767 -0.221,3.509 -0.294,5.227 -0.073,1.719 -0.111,3.46 -0.111,5.227 v 3.679 c 0,2.088 0.018,4.205 0.057,6.351 z"
   id="path145" />
		<path
   style="fill:#204470"
   d="m 356.967,302.112 c -1.029,2.478 -1.938,4.811 -2.723,6.994 -0.294,-0.049 -0.584,-0.091 -0.865,-0.128 -0.283,-0.038 -0.595,-0.057 -0.938,-0.057 -0.27,0 -0.559,0.018 -0.865,0.057 -0.309,0.036 -0.633,0.078 -0.976,0.128 -0.613,-1.694 -1.281,-3.351 -2.006,-4.968 -0.725,-1.621 -1.416,-3.278 -2.079,-4.971 -0.418,-1.029 -0.86,-2.03 -1.325,-2.999 -0.467,-0.969 -0.909,-1.969 -1.325,-2.999 -0.272,1.349 -0.493,2.692 -0.663,4.03 -0.173,1.336 -0.345,2.705 -0.517,4.103 -0.197,1.621 -0.356,3.081 -0.478,4.38 -0.122,1.301 -0.208,2.478 -0.257,3.533 -0.737,-0.219 -1.497,-0.33 -2.283,-0.33 -0.416,0 -0.821,0.031 -1.214,0.093 -0.392,0.06 -0.798,0.141 -1.216,0.237 0.491,-1.863 0.922,-3.723 1.289,-5.576 0.369,-1.852 0.725,-3.736 1.068,-5.648 0.418,-2.161 0.785,-4.419 1.104,-6.775 0.319,-2.354 0.564,-4.65 0.735,-6.882 l 0.111,-1.473 c 0.564,0.124 1.128,0.208 1.694,0.259 0.564,0.047 1.128,0.073 1.692,0.073 0.613,0 1.19,-0.026 1.73,-0.073 0.54,-0.051 1.104,-0.135 1.694,-0.259 0.221,0.639 0.491,1.38 0.81,2.227 0.318,0.847 0.668,1.743 1.05,2.686 0.38,0.945 0.785,1.916 1.214,2.909 0.429,0.993 0.852,1.964 1.27,2.907 0.416,0.945 0.828,1.847 1.234,2.706 0.403,0.858 0.767,1.619 1.084,2.281 1.106,-2.577 2.228,-5.196 3.369,-7.859 1.141,-2.661 2.164,-5.282 3.073,-7.858 0.538,0.124 1.079,0.208 1.619,0.259 0.54,0.047 1.091,0.073 1.657,0.073 0.564,0 1.141,-0.018 1.73,-0.055 0.588,-0.036 1.164,-0.13 1.73,-0.277 l 0.442,4.749 c 0.097,0.956 0.221,2.068 0.367,3.331 0.148,1.265 0.301,2.582 0.46,3.957 0.161,1.374 0.338,2.772 0.535,4.196 0.195,1.423 0.387,2.774 0.569,4.05 0.184,1.276 0.374,2.442 0.571,3.495 0.195,1.057 0.38,1.916 0.553,2.577 -0.787,-0.097 -1.54,-0.177 -2.265,-0.237 -0.725,-0.062 -1.465,-0.093 -2.227,-0.093 -0.735,0 -1.473,0.031 -2.208,0.093 -0.736,0.06 -1.46,0.141 -2.172,0.237 -0.122,-1.619 -0.252,-3.201 -0.387,-4.747 -0.135,-1.546 -0.288,-3.13 -0.46,-4.749 -0.122,-1.203 -0.27,-2.422 -0.442,-3.663 -0.172,-1.237 -0.33,-2.3 -0.478,-3.183 l -0.883,1.951 c -1.103,2.381 -2.17,4.81 -3.202,7.288 z"
   id="path146" />
		<path
   style="fill:#204470"
   d="m 377.618,309.215 c -0.418,-0.097 -0.829,-0.177 -1.234,-0.237 -0.405,-0.062 -0.829,-0.093 -1.27,-0.093 -0.416,0 -0.827,0.031 -1.232,0.093 -0.405,0.06 -0.779,0.141 -1.122,0.237 l 2.172,-4.895 c 0.343,-0.736 0.723,-1.588 1.141,-2.559 0.416,-0.967 0.852,-2.004 1.307,-3.11 0.453,-1.102 0.925,-2.256 1.416,-3.46 0.491,-1.201 0.982,-2.404 1.473,-3.606 0.27,-0.686 0.577,-1.478 0.92,-2.374 0.343,-0.896 0.675,-1.779 0.995,-2.65 0.318,-0.871 0.613,-1.655 0.883,-2.356 0.268,-0.699 0.465,-1.195 0.588,-1.489 0.418,0.099 0.847,0.179 1.289,0.237 0.442,0.062 0.871,0.093 1.288,0.093 0.442,0 0.883,-0.031 1.325,-0.093 0.442,-0.058 0.871,-0.139 1.289,-0.237 0.27,0.883 0.613,1.92 1.031,3.11 0.416,1.19 0.865,2.442 1.343,3.754 0.478,1.312 0.969,2.626 1.473,3.938 0.502,1.312 0.975,2.535 1.416,3.663 0.515,1.299 0.976,2.453 1.38,3.46 0.405,1.006 0.792,1.957 1.161,2.851 0.367,0.898 0.754,1.799 1.159,2.705 0.405,0.909 0.865,1.916 1.38,3.019 -0.712,-0.146 -1.509,-0.237 -2.393,-0.275 -0.883,-0.037 -1.692,-0.055 -2.429,-0.055 -0.785,0 -1.577,0.031 -2.374,0.093 -0.798,0.06 -1.588,0.141 -2.373,0.237 -0.246,-0.931 -0.498,-1.827 -0.755,-2.686 -0.257,-0.858 -0.546,-1.716 -0.865,-2.577 -0.809,0 -1.619,-0.004 -2.429,-0.018 -0.81,-0.011 -1.619,-0.018 -2.429,-0.018 -0.639,0 -1.283,0.007 -1.933,0.018 -0.65,0.015 -1.294,0.018 -1.933,0.018 -0.343,0.861 -0.637,1.73 -0.883,2.613 -0.248,0.883 -0.505,1.766 -0.775,2.649 z m 2.723,-8.574 c 0.27,0.024 0.54,0.037 0.81,0.037 0.27,0 0.54,0 0.81,0 h 1.619 1.619 c 0.27,0 0.54,0 0.81,0 0.27,0 0.54,-0.013 0.81,-0.037 l -3.167,-8.578 z"
   id="path147" />
		<path
   style="fill:#204470"
   d="m 402.407,295.433 c -0.013,-0.774 -0.018,-1.59 -0.018,-2.449 0,-0.883 -0.007,-1.705 -0.018,-2.466 -0.013,-0.761 -0.02,-1.286 -0.02,-1.582 0,-0.834 -0.024,-1.754 -0.073,-2.76 -0.049,-1.008 -0.135,-2.112 -0.257,-3.314 0.663,0.073 1.403,0.148 2.227,0.223 0.821,0.073 1.588,0.109 2.301,0.109 0.686,0 1.453,-0.031 2.3,-0.091 0.847,-0.062 1.588,-0.142 2.227,-0.241 -0.073,0.859 -0.135,1.756 -0.184,2.686 -0.049,0.934 -0.091,1.86 -0.128,2.78 -0.036,0.922 -0.062,1.805 -0.075,2.652 -0.011,0.845 -0.018,1.624 -0.018,2.336 0.566,0.026 1.19,0.044 1.878,0.055 0.686,0.013 1.398,0.018 2.135,0.018 0.637,0 1.312,-0.011 2.024,-0.037 0.712,-0.024 1.411,-0.036 2.099,-0.036 0,-0.737 -0.007,-1.54 -0.02,-2.411 -0.013,-0.871 -0.037,-1.761 -0.073,-2.668 -0.036,-0.907 -0.08,-1.823 -0.128,-2.743 -0.051,-0.92 -0.111,-1.796 -0.184,-2.632 0.662,0.073 1.411,0.148 2.245,0.223 0.834,0.073 1.595,0.109 2.281,0.109 0.688,0 1.455,-0.031 2.301,-0.091 0.847,-0.062 1.588,-0.142 2.227,-0.241 -0.148,1.548 -0.252,3.143 -0.312,4.785 -0.062,1.644 -0.093,3.559 -0.093,5.742 0,1.644 0.013,3.146 0.037,4.51 0.025,1.361 0.057,2.663 0.093,3.9 0.036,1.241 0.073,2.456 0.11,3.646 0.036,1.19 0.08,2.446 0.13,3.771 -1.571,-0.219 -3.179,-0.33 -4.822,-0.33 -0.712,0 -1.418,0.031 -2.117,0.093 -0.699,0.06 -1.405,0.141 -2.117,0.237 0.098,-0.808 0.179,-1.785 0.241,-2.925 0.06,-1.141 0.104,-2.294 0.128,-3.458 0.024,-1.166 0.042,-2.27 0.055,-3.314 0.013,-1.042 0.02,-1.883 0.02,-2.522 -0.664,0 -1.338,-0.011 -2.026,-0.037 -0.686,-0.022 -1.374,-0.036 -2.06,-0.036 -0.639,0 -1.314,0.007 -2.024,0.018 -0.712,0.015 -1.387,0.033 -2.026,0.055 0,0.664 0.007,1.517 0.018,2.559 0.013,1.044 0.031,2.148 0.056,3.314 0.024,1.164 0.06,2.312 0.11,3.44 0.049,1.13 0.111,2.099 0.184,2.907 -0.761,-0.12 -1.522,-0.208 -2.281,-0.255 -0.761,-0.051 -1.535,-0.075 -2.32,-0.075 -0.933,0 -1.743,0.031 -2.429,0.093 -0.688,0.06 -1.35,0.141 -1.987,0.237 l 0.148,-1.84 c 0.047,-0.54 0.091,-1.219 0.128,-2.042 0.037,-0.823 0.062,-1.706 0.075,-2.652 0.011,-0.942 0.024,-1.905 0.036,-2.887 0.011,-0.982 0.018,-1.891 0.018,-2.725 -0.003,-0.321 -0.011,-0.866 -0.022,-1.638 z"
   id="path148" />
	</g>
</g>
</svg>
